<svg xmlns="http://www.w3.org/2000/svg" viewBox="0 0 79.436 24.778">
  <defs>
    <style>
      .cls-1 {
        fill: #fff;
      }
    </style>
  </defs>
  <g id="Shape" transform="translate(0 0)">
    <path id="Shape-2" data-name="Shape" class="cls-1" d="M3.318,18.151H0V14.123H3.414V13.042c0-4.962,2.33-6.691,6.924-6.691a15.664,15.664,0,0,1,2.938.321l-.353,3.97a5.207,5.207,0,0,0-1.82-.259c-1.467,0-2.039,1.025-2.039,2.659v1.081h4.159v4.028H9.064V30.745H3.318ZM15.445,6.73h5.748V30.745H15.445Zm8.614.385H29.8v4.228H24.058Zm0,6.99H29.8V30.743H24.058Zm21.322,4.728a6.3,6.3,0,0,0-3.475-.925A4.281,4.281,0,0,0,37.5,22.517,4.484,4.484,0,0,0,42.221,26.9a7.857,7.857,0,0,0,3.574-.8l.129,4.288a15.49,15.49,0,0,1-4.694.737c-5.487,0-9.667-3.2-9.667-8.71,0-5.54,4.181-8.739,9.667-8.739a10.306,10.306,0,0,1,4.565.93l-.416,4.223Zm2.937-12.1H54.06V21.075h.063l4.788-7.01H65.2l-5.774,7.654,6.253,9.025H58.719l-4.6-8.261H54.06v8.26H48.317V6.73ZM79.148,18.675a6.53,6.53,0,0,0-1.945-.194c-2.681,0-4.183,1.956-4.183,5.221v7.042H67.28V14.064h5.232v3.073h.062c.991-2.114,2.427-3.458,4.917-3.458a11.829,11.829,0,0,1,1.945.193l-.287,4.8Z" transform="translate(0 -6.351)"/>
  </g>
</svg>
