<?xml version="1.0" encoding="UTF-8" standalone="no"?><!DOCTYPE svg PUBLIC "-//W3C//DTD SVG 1.1//EN" "http://www.w3.org/Graphics/SVG/1.1/DTD/svg11.dtd"><svg width="100%" height="100%" viewBox="0 0 384 384" version="1.1" xmlns="http://www.w3.org/2000/svg" xmlns:xlink="http://www.w3.org/1999/xlink" xml:space="preserve" xmlns:serif="http://www.serif.com/" style="fill-rule:evenodd;clip-rule:evenodd;stroke-linejoin:round;stroke-miterlimit:2;"><ellipse cx="185.038" cy="36.475" rx="32.722" ry="32.725" style="fill:#183d7c;"/><ellipse cx="185.038" cy="114.237" rx="32.722" ry="32.725" style="fill:#183d7c;"/><ellipse cx="185.038" cy="192" rx="32.722" ry="32.725" style="fill:#183d7c;"/><ellipse cx="185.038" cy="269.763" rx="32.722" ry="32.725" style="fill:#183d7c;"/><ellipse cx="185.038" cy="347.525" rx="32.722" ry="32.725" style="fill:#183d7c;"/><ellipse cx="326.424" cy="114.237" rx="32.722" ry="32.725" style="fill:#183d7c;fill-opacity:0.6;"/><ellipse cx="326.424" cy="192" rx="32.722" ry="32.725" style="fill:#183d7c;fill-opacity:0.6;"/><ellipse cx="326.424" cy="269.763" rx="32.722" ry="32.725" style="fill:#183d7c;fill-opacity:0.6;"/><ellipse cx="43.651" cy="114.237" rx="18.798" ry="18.799" style="fill:#183d7c;"/><ellipse cx="43.651" cy="192" rx="18.798" ry="18.799" style="fill:#183d7c;"/><ellipse cx="43.651" cy="269.763" rx="18.798" ry="18.799" style="fill:#183d7c;"/><ellipse cx="255.731" cy="75.356" rx="32.722" ry="32.725" style="fill:#183d7c;fill-opacity:0.8;"/><ellipse cx="255.731" cy="153.119" rx="32.722" ry="32.725" style="fill:#183d7c;fill-opacity:0.8;"/><ellipse cx="255.731" cy="230.881" rx="32.722" ry="32.725" style="fill:#183d7c;fill-opacity:0.8;"/><ellipse cx="255.731" cy="308.644" rx="32.722" ry="32.725" style="fill:#183d7c;fill-opacity:0.8;"/><ellipse cx="114.345" cy="75.356" rx="25.867" ry="25.869" style="fill:#183d7c;"/><ellipse cx="114.345" cy="153.119" rx="25.867" ry="25.869" style="fill:#183d7c;"/><ellipse cx="114.345" cy="230.881" rx="25.867" ry="25.869" style="fill:#183d7c;"/><ellipse cx="114.345" cy="308.644" rx="25.867" ry="25.869" style="fill:#183d7c;"/></svg>