<?xml version="1.0"?>
<svg width="299.172681" height="167.350521" xmlns="http://www.w3.org/2000/svg" xmlns:svg="http://www.w3.org/2000/svg">

 <g class="layer">
  <title>Layer 1</title>
  <path d="m286.3,1.37785c-1.4,-0.1 -142.2,-11.9 -284.8,35.4l-1.5,0.5l2.3,6.9l1.5,-0.5c55.7,-18.5 117.4,-30.1 183.6,-34.5c48.9,-3.3 85.1,-1.4 95,-0.8l0,149.5l7.3,0l0,-156.2l-3.4,-0.3z" fill="#ffffff" id="path3484"/>
  <path d="m23.80078,62.07707c-4.7,0 -8.10156,3.00156 -8.10156,8.10156c0,4.6 2.90078,7.69922 7.80078,7.69922c1.8,0 3.30039,-0.29922 3.90039,-0.69922l-0.5,-2.30078c-0.7,0.3 -1.9,0.59961 -3,0.59961c-3.3,0 -5.30078,-2.1 -5.30078,-5.5c0,-3.7 2.20078,-5.59961 5.30078,-5.59961c1.3,0 2.3,0.29961 3,0.59961l0.59961,-2.19922c-0.6,-0.3 -1.89922,-0.70117 -3.69922,-0.70117zm29.29883,0c-1.6,0 -3.19922,0.10078 -4.19922,0.30078l0,15.09961l2.69922,0l0,-6.29883l1.40039,0c1.6,0 2.29922,0.69922 2.69922,2.69922c0.4,1.9 0.8,3.09961 1,3.59961l2.90039,0c-0.3,-0.6 -0.69922,-2.39883 -1.19922,-4.29883c-0.4,-1.5 -0.99961,-2.50039 -2.09961,-2.90039l0,-0.09961c1.4,-0.5 2.79883,-1.90078 2.79883,-3.80078c0,-1.3 -0.49883,-2.39961 -1.29883,-3.09961c-1,-0.9 -2.50117,-1.20117 -4.70117,-1.20117zm52.59961,0c-4.3,0 -7.19922,3.3 -7.19922,8c0,4.5 2.7,7.80078 7,7.80078c4.2,0 7.30078,-2.9 7.30078,-8c-0.1,-4.5 -2.70156,-7.80078 -7.10156,-7.80078zm42.60156,0c-4.3,0 -7.20117,3.3 -7.20117,8c0,4.5 2.7,7.80078 7,7.80078c4.2,0 7.30078,-2.9 7.30078,-8c0,-4.5 -2.59961,-7.80078 -7.09961,-7.80078zm16.69922,0c-3.3,0 -5.40039,1.90039 -5.40039,4.40039c0,2.2 1.59961,3.50039 4.09961,4.40039c1.9,0.7 2.70117,1.4 2.70117,2.5c0,1.2 -1.00078,2.09961 -2.80078,2.09961c-1.4,0 -2.79922,-0.5 -3.69922,-1l-0.5,2.30078c0.8,0.5 2.49961,1 4.09961,1c3.9,0 5.80078,-2.09961 5.80078,-4.59961c0,-2.2 -1.30039,-3.5 -3.90039,-4.5c-2,-0.8 -2.90039,-1.3 -2.90039,-2.5c0,-0.9 0.8,-1.80078 2.5,-1.80078c1.4,0 2.5,0.39922 3,0.69922l0.69922,-2.19922c-0.8,-0.4 -1.99922,-0.80078 -3.69922,-0.80078zm14,0c-3.3,0 -5.40039,1.90039 -5.40039,4.40039c0,2.2 1.59961,3.50039 4.09961,4.40039c1.9,0.7 2.70117,1.4 2.70117,2.5c0,1.2 -1.00078,2.09961 -2.80078,2.09961c-1.4,0 -2.79922,-0.5 -3.69922,-1l-0.5,2.30078c0.8,0.5 2.49961,1 4.09961,1c3.9,0 5.80078,-2.09961 5.80078,-4.59961c0,-2.2 -1.30039,-3.5 -3.90039,-4.5c-2,-0.8 -2.90039,-1.3 -2.90039,-2.5c0,-0.9 0.8,-1.80078 2.5,-1.80078c1.4,0 2.5,0.39922 3,0.69922l0.69922,-2.19922c-0.8,-0.4 -1.99922,-0.80078 -3.69922,-0.80078zm68.69922,0.10156l-4,5.39844c-0.4,0.5 -0.69961,1.10117 -1.09961,1.70117l-0.0996,0l0,-7l-2.80078,0l0,15.19922l2.80078,0l0,-5.40039l1.40039,-1.59961l4.29883,7l3.30078,0l-5.59961,-8.79883l5.19922,-6.5l-3.40039,0l-0.00001,0zm-211.89844,0.09961l-4.80078,15.19922l2.90039,0l1.29883,-4.29883l4.80078,0l1.40039,4.29883l3,0l-5,-15.19922l-3.59961,0zm28.09961,0l0,15.19922l9.09961,0l0,-2.29883l-6.30078,0l0,-12.90039l-2.79883,0zm18.09961,0l5,15.19922l3.09961,0l5.30078,-15.19922l-3,0l-2.20117,7c-0.6,1.9 -1.19961,3.7 -1.59961,5.5c-0.4,-1.9 -0.9,-3.59961 -1.5,-5.59961l-2.09961,-6.90039l-3,0zm35.5,0l0,15.19922l2.5,0l0,-5.5c0,-2.5 0.00039,-4.5 -0.0996,-6.5l0.0996,0c0.7,1.7 1.79922,3.60078 2.69922,5.30078l4,6.69922l2.90039,0l0,-15.19922l-2.59961,0l0,5.29883c0,2.3 0.0992,4.30078 0.19922,6.30078c-0.7,-1.7 -1.59961,-3.39961 -2.59961,-5.09961l-3.90039,-6.5l-3.19922,0zm70.59961,0l0,15.19922l2.80078,0l0,-15.19922l-2.80078,0zm8.20117,0l0,15.19922l9.19922,0l0,-2.19922l-6.40039,0l0,-4.5l5.70117,0l0,-2.30078l-5.70117,0l0,-3.90039l6.09961,0l0,-2.29883l-8.89844,0zm12.69922,0l0,2.29883l4.40039,0l0,12.90039l2.69922,0l0,-12.90039l4.40039,0l0,-2.29883l-11.5,0zm15.30078,0l0,2.29883l7.09961,0l0,0.10156l-7.80078,11.29883l0,1.5l11.5,0l0,-2.29883l-7.79883,0l7.69922,-11.30078l0,-1.59961l-10.69922,0zm29.29883,0l4.80078,8.90039l0,6.39844l2.69922,0l0,-0.09961l0,-6.40039l5.09961,-8.79883l-3.19922,0l-1.80078,3.90039c-0.5,1.1 -0.99883,2.1 -1.29883,3c-0.4,-1 -0.80078,-1.9 -1.30078,-3l-1.79883,-3.90039l-3.20117,0zm-200.29883,2c1.8,0 3,0.80039 3,2.40039c0,1.5 -1.20156,2.5 -3.10156,2.5l-1.69922,0l0,-4.80078l0.0996,0c0.3,-0.1 0.80117,-0.09961 1.70117,-0.09961l0.00001,0zm52.29883,0c2.8,0 4.20117,2.69961 4.20117,5.59961c0,3.2 -1.50117,5.69922 -4.20117,5.69922c-2.7,0 -4.19922,-2.49961 -4.19922,-5.59961c0,-3.1 1.39922,-5.69922 4.19922,-5.69922zm42.70117,0c2.8,0 4.19922,2.69961 4.19922,5.59961c0,3.2 -1.49922,5.69922 -4.19922,5.69922c-2.7,0 -4.20117,-2.49961 -4.20117,-5.59961c-0.1,-3.1 1.40117,-5.69922 4.20117,-5.69922zm-110.70117,0.19922c0.2,0.9 0.50078,1.90078 0.80078,2.80078l1.19922,3.79883l-3.90039,0l1.20117,-3.79883c0.3,-0.9 0.49922,-2.00078 0.69922,-2.80078z" fill="#ffffff" id="path3486"/>
  <path d="m24.59961,129.17863c-5.4,0 -8.90039,4.09961 -8.90039,9.59961c0,5.2 3.20156,9.29883 8.60156,9.29883c5.3,0 9,-3.59961 9,-9.59961c0,-5.1 -3.10117,-9.29883 -8.70117,-9.29883zm232.70117,0.0996c-6,0 -10.40039,3.5 -10.40039,9.5c0,2.7 0.89961,5.09961 2.59961,6.59961c1.7,1.6 4.10039,2.5 7.40039,2.5c2.4,0 4.79961,-0.6 6.09961,-1l0,-9.59961l-6.80078,0l0,3.19922l2.80078,0l0,3.80078c-0.3,0.2 -1.1,0.29883 -2,0.29883c-3.4,0 -5.69922,-2.2 -5.69922,-6c0,-3.9 2.6,-5.89844 6,-5.89844c2,0 3.19922,0.39883 4.19922,0.79883l0.90039,-3.29883c-0.9,-0.4 -2.69961,-0.90039 -5.09961,-0.90039zm-178.20117,0.0996c-2.1,0 -4.09961,0.10039 -5.59961,0.40039l0,17.90039l0.0996,0c1,0.1 2.50117,0.29883 4.70117,0.29883c3.6,0 6.49844,-0.80039 8.39844,-2.40039c1.8,-1.5 3,-3.89844 3,-7.39844c0,-3.2 -1.19961,-5.50039 -3.09961,-6.90039c-1.8,-1.3 -4,-1.90039 -7.5,-1.90039l0.00001,0zm87.59961,0c-2.1,0 -4.19883,0.20039 -5.29883,0.40039l0,17.90039l-0.0996,0c0.9,0.1 2.4,0.29883 4.5,0.29883c3.6,0 5.79922,-0.59922 7.19922,-1.69922c1.1,-0.9 1.90039,-2.20039 1.90039,-3.90039c0,-2.4 -1.49961,-3.9 -3.59961,-4.5c2.1,-0.8 3,-2.30039 3,-3.90039c0,-1.7 -0.90117,-2.89961 -2.20117,-3.59961c-1.3,-0.8 -2.90039,-1 -5.40039,-1l-0.00001,0zm58.60156,0c-2.2,0 -4.2,0.20039 -5.5,0.40039l0,18l0.0996,0l4.09961,0l0,-7.20117l1.19922,0c1.7,0 2.50039,0.60039 2.90039,2.90039c0.5,2.2 1.00078,3.70117 1.30078,4.20117l4.19922,0c-0.4,-0.7 -0.9,-3.10156 -1.5,-5.10156c-0.5,-1.7 -1.20039,-2.89844 -2.40039,-3.39844l0,-0.10156c1.6,-0.6 3.20117,-2.2 3.20117,-4.5c0,-1.7 -0.60117,-2.89883 -1.70117,-3.79883c-1.3,-1 -3.19844,-1.40039 -5.89844,-1.40039l0.00001,0zm-177.40039,0.0996l0,18.30078l11.40039,0l0,-3.5l-7.30078,0l0,-14.80078l-4.09961,0zm56.5,0l0,18.30078l11.59961,0l0,-3.40039l-7.5,0l0,-4.30078l6.69922,0l0,-3.39844l-6.69922,0l0,-3.80078l7.09961,0l0,-3.40039l-11.19922,0zm26.29883,0l0,18.20117l3.80078,0l0,-5.40039c0,-3 -0.0992,-5.5 -0.19922,-8l0.0996,0c0.9,2.1 2.09922,4.50039 3.19922,6.40039l3.90039,7l4.30078,0l0,-18.20117l-3.80078,0l0,5.30078c0,2.7 0.10039,5.19961 0.40039,7.59961l-0.0996,0c-0.8,-2.1 -1.9,-4.29922 -3,-6.19922l-3.80078,-6.70117l-4.80078,0zm58.80078,0.0996l0,10.10156c0,5.8 2.70078,8.39844 7.30078,8.39844c4.8,0 7.59961,-2.69883 7.59961,-8.29883l0,-10.20117l-4.09961,0l0,10.5c0,3.2 -1.20039,4.70117 -3.40039,4.70117c-2.1,0 -3.30078,-1.60117 -3.30078,-4.70117l0,-10.5l-4.09961,0zm-22.30078,2.8008c1.9,0 2.90039,0.69961 2.90039,2.09961c0,1.4 -1.19883,2.20117 -3.29883,2.20117l-1.40039,0l0,-4.20117c0.4,-0.1 0.89883,-0.0996 1.79883,-0.0996l0,-0.00001zm-142.69922,0.09963c2.8,0 4.40039,2.79961 4.40039,6.09961c0,3.5 -1.60039,6.20117 -4.40039,6.20117c-2.8,0 -4.40039,-2.49961 -4.40039,-6.09961c0,-3.5 1.60039,-6.20117 4.40039,-6.20117zm55.19922,0c3.5,0 5.80117,2.00078 5.70117,5.80078c0,4.4 -2.40117,6.40039 -6.20117,6.40039c-0.5,0 -1.09844,-0.002 -1.39844,-0.10156l0,-11.89844c0.4,-0.1 0.89844,-0.20117 1.89844,-0.20117zm146.20117,0c1.9,0 3,0.9 3,2.5c0,1.6 -1.20078,2.59961 -3.30078,2.59961l-1.59961,0l0,-5c0.3,-0.1 0.90039,-0.0996 1.90039,-0.0996l0,-0.00001zm-60.5,7.20117l1.40039,0c2.1,0 3.69922,0.69961 3.69922,2.59961c0,1.9 -1.7,2.59961 -3.5,2.59961c-0.7,0 -1.19961,0.00039 -1.59961,-0.0996l0,-5.09961l0,-0.00001z" fill="#ffffff" id="path3518"/>
  <path d="m233.69922,89.47746c-1.2,0 -2.09961,0.9 -2.09961,2c0,1.2 0.89961,2.09961 2.09961,2.09961c1.1,0 2,-0.99961 2,-2.09961c0,-1.2 -0.9,-2 -2,-2zm6.20117,0c-1.2,0 -2,0.9 -2,2c-0.1,1.2 0.8,2.09961 2,2.09961c1.2,0 2,-0.99961 2,-2.09961c0,-1.2 -0.8,-2 -2,-2zm-66.70117,4.90039c-4.8,0 -7.69922,2.59961 -7.69922,6.09961c0,2.9 2.19961,4.8 5.59961,6c2.4,0.9 3.40039,1.60039 3.40039,2.90039c0,1.3 -1.09922,2.19922 -3.19922,2.19922c-2,0 -3.80156,-0.59883 -5.10156,-1.29883l-0.69922,3.79883c1.1,0.6 3.39922,1.20117 5.69922,1.20117c5.6,0 8.20117,-2.90078 8.20117,-6.30078c0,-2.9 -1.70078,-4.7 -5.30078,-6c-2.6,-1 -3.79883,-1.60039 -3.79883,-2.90039c0,-1.1 0.99844,-2 2.89844,-2c2,0 3.40117,0.6 4.20117,1l1,-3.69922c-1.2,-0.5 -2.90117,-1 -5.20117,-1zm-26.39844,0.09961c-2.4,0 -4.60156,0.20039 -6.10156,0.40039l0,20.09961l4.5,0l0,-8l1.40039,0c1.9,0 2.70078,0.70117 3.30078,3.20117c0.6,2.5 1.10039,4.09922 1.40039,4.69922l4.69922,0c-0.4,-0.8 -0.99922,-3.39922 -1.69922,-5.69922c-0.5,-1.9 -1.30117,-3.20078 -2.70117,-3.80078l0,-0.0996c1.7,-0.6 3.59961,-2.4 3.59961,-5c0,-1.9 -0.69844,-3.30117 -1.89844,-4.20117c-1.4,-1.1 -3.5,-1.59961 -6.5,-1.59961l0,-0.00001zm-58.60156,0.20117l6.5,20.19922l5.40039,0l0,0.0996l6.80078,-20.19922l-4.90039,0l-2.59961,8.59962c-0.7,2.3 -1.30078,4.69961 -1.80078,7.09961l-0.0996,0c-0.5,-2.5 -1.10078,-4.79922 -1.80078,-7.19922l-2.5,-8.59961l-5,0l-0.00001,0zm-71.39844,0.09961l0,11.29883c0,6.5 2.99961,9.30078 8.09961,9.30078c5.3,0 8.40039,-2.99922 8.40039,-9.19922l0,-11.40039l-4.60156,0l0,11.59961c0,3.6 -1.29922,5.30078 -3.69922,5.30078c-2.3,0 -3.69922,-1.80078 -3.69922,-5.30078l0,-11.59961l-4.5,0zm28.29883,0l0,20.19922l4.20117,0l0,-6.09961c0,-3.3 -0.10117,-6.20078 -0.20117,-8.80078l0.0996,0c1,2.4 2.3,5.00156 3.5,7.10156l4.30078,7.79883l4.80078,0l0,-20.19922l-4.20117,0l0,5.90039c0,3 0.10039,5.79844 0.40039,8.39844l-0.0996,0c-0.9,-2.3 -2.10078,-4.79844 -3.30078,-6.89844l-4.19922,-7.40039l-5.30078,0zm28.5,0l0,20.19922l4.59961,0l0,-20.19922l-4.59961,0zm43.30078,0l0,20.19922l12.90039,0l0,-3.79883l-8.30078,0l0,-4.80078l7.40039,0l0,-3.69922l-7.40039,0l0,-4.20117l7.90039,0l0,-3.69922l-12.5,0zm73.40039,0l0,20.19922l4.59961,0l0,-20.19922l-4.59961,0zm14.89844,0l0,3.79883l5.40039,0l0,16.40039l4.59961,0l0,-16.40039l5.5,0l0,-3.79883l-15.5,0zm28.30078,0l-6.19922,20.19922l4.69922,0l1.40039,-5.19922l5.90039,0l1.59961,5.19922l4.90039,0l-6.30078,-20.19922l-6,0zm18.80078,0l0,3.79883l5.39844,0l0,16.40039l4.60156,0l0,-16.40039l5.5,0l0,-3.79883l-15.5,0zm-105,3.19922c2.1,0 3.39844,1.00078 3.39844,2.80078c0,1.8 -1.39961,2.90039 -3.59961,2.90039l-1.79883,0l0,-5.5l-0.10156,0c0.3,-0.1 1.00156,-0.20117 2.10156,-0.20117zm89,0.20117l0.0996,0c0.3,1.2 0.7,2.69844 1,3.89844l1.29883,4.30078l-4.5,0l1.20117,-4.30078c0.3,-1.2 0.60039,-2.69844 0.90039,-3.89844l0.00001,0z" fill="#ffffff" id="path3536"/>
 </g>
</svg>