<?xml version="1.0" encoding="UTF-8" standalone="no"?><!DOCTYPE svg PUBLIC "-//W3C//DTD SVG 1.1//EN" "http://www.w3.org/Graphics/SVG/1.1/DTD/svg11.dtd"><svg width="100%" height="100%" viewBox="0 0 188 89" version="1.1" xmlns="http://www.w3.org/2000/svg" xmlns:xlink="http://www.w3.org/1999/xlink" xml:space="preserve" xmlns:serif="http://www.serif.com/" style="fill-rule:evenodd;clip-rule:evenodd;stroke-linecap:square;stroke-linejoin:round;stroke-miterlimit:1.5;"><path d="M135.751,69.221l-32.206,0l32.173,-49.935l32.408,49.935l0.029,-49.96" style="fill:none;stroke:#fff;stroke-width:13.96px;"/><ellipse cx="48.239" cy="11.011" rx="6.943" ry="6.944" style="fill:#fff;"/><ellipse cx="48.239" cy="27.511" rx="6.943" ry="6.944" style="fill:#fff;"/><ellipse cx="48.239" cy="44.011" rx="6.943" ry="6.944" style="fill:#fff;"/><ellipse cx="48.239" cy="60.511" rx="6.943" ry="6.944" style="fill:#fff;"/><ellipse cx="48.239" cy="77.011" rx="6.943" ry="6.944" style="fill:#fff;"/><ellipse cx="78.239" cy="27.511" rx="6.943" ry="6.944" style="fill:#fff;fill-opacity:0.6;"/><ellipse cx="78.239" cy="44.011" rx="6.943" ry="6.944" style="fill:#fff;fill-opacity:0.6;"/><ellipse cx="78.239" cy="60.511" rx="6.943" ry="6.944" style="fill:#fff;fill-opacity:0.6;"/><ellipse cx="18.239" cy="27.511" rx="3.989" ry="3.989" style="fill:#fff;"/><ellipse cx="18.239" cy="44.011" rx="3.989" ry="3.989" style="fill:#fff;"/><ellipse cx="18.239" cy="60.511" rx="3.989" ry="3.989" style="fill:#fff;"/><ellipse cx="63.239" cy="19.261" rx="6.943" ry="6.944" style="fill:#fff;fill-opacity:0.68;"/><ellipse cx="63.239" cy="35.761" rx="6.943" ry="6.944" style="fill:#fff;fill-opacity:0.68;"/><ellipse cx="63.239" cy="52.261" rx="6.943" ry="6.944" style="fill:#fff;fill-opacity:0.68;"/><ellipse cx="63.239" cy="68.761" rx="6.943" ry="6.944" style="fill:#fff;fill-opacity:0.68;"/><ellipse cx="33.239" cy="19.261" rx="5.488" ry="5.489" style="fill:#fff;"/><ellipse cx="33.239" cy="35.761" rx="5.488" ry="5.489" style="fill:#fff;"/><ellipse cx="33.239" cy="52.261" rx="5.488" ry="5.489" style="fill:#fff;"/><ellipse cx="33.239" cy="68.761" rx="5.488" ry="5.489" style="fill:#fff;"/></svg>