<?xml version="1.0" encoding="UTF-8" standalone="no"?><!DOCTYPE svg PUBLIC "-//W3C//DTD SVG 1.1//EN" "http://www.w3.org/Graphics/SVG/1.1/DTD/svg11.dtd"><svg width="100%" height="100%" viewBox="0 0 490 568" version="1.1" xmlns="http://www.w3.org/2000/svg" xmlns:xlink="http://www.w3.org/1999/xlink" xml:space="preserve" xmlns:serif="http://www.serif.com/" style="fill-rule:evenodd;clip-rule:evenodd;stroke-linejoin:round;stroke-miterlimit:2;"><rect x="11.304" y="20.862" width="104.075" height="105.333" style="fill:#d8d8d8;"/><path d="M118.309,129.125l-109.936,0l0,-111.194l109.936,0l0,111.194Zm-104.075,-105.333l0,99.473l98.214,0l0,-99.473l-98.214,0Z" style="fill:#fff;"/><rect x="252.922" y="5.283" width="104.075" height="105.333" style="fill:#d8d8d8;"/><path d="M359.927,2.353l0,111.194l-109.935,0l0,-111.194l109.935,0Zm-104.074,105.333l98.213,0l0,-99.473l-98.213,0l0,99.473Z" style="fill:#fff;"/><rect x="379.781" y="98.063" width="104.075" height="105.333" style="fill:#d8d8d8;"/><path d="M486.787,206.327l-109.936,0l0,-111.194l109.936,0l0,111.194Zm-104.075,-105.333l0,99.472l98.214,0l0,-99.472l-98.214,0Z" style="fill:#fff;"/><rect x="11.304" y="36.195" width="77.25" height="90" style="fill:#fff;"/><rect x="252.922" y="20.616" width="77.25" height="90" style="fill:#fff;"/><rect x="379.781" y="113.397" width="77.25" height="90" style="fill:#fff;"/><path d="M62.289,263.37l-1.073,-1.068c4.937,-5.708 8.679,-12.384 10.997,-19.618c3.649,-11.199 5.432,-28.886 -6.801,-49.547c-12.516,-21.139 -13.08,-38.308 -11.348,-48.989c1.884,-11.622 6.69,-18.137 6.894,-18.409l1.192,0.929c-0.048,0.064 -4.813,6.544 -6.621,17.82c-1.669,10.41 -1.087,27.163 11.167,47.858c12.545,21.189 10.687,39.367 6.919,50.885c-4.083,12.48 -11.032,19.832 -11.326,20.139Z" style="fill:#fff;fill-rule:nonzero;"/><path d="M64.786,126.3l-1.106,1.512l-0.032,0.045l-0.057,0.082l-0.082,0.121l-0.048,0.07l-0.053,0.082l-0.06,0.09l-0.064,0.099l-0.068,0.108l-0.074,0.117l-0.078,0.126l-0.082,0.134l-0.086,0.143l-0.09,0.151l-0.094,0.16l-0.098,0.169l-0.1,0.177l-0.105,0.186l-0.107,0.194l-0.11,0.202l-0.112,0.211l-0.116,0.219l-0.117,0.227l-0.12,0.236l-0.122,0.243l-0.123,0.252l-0.126,0.262l-0.063,0.131l-0.063,0.135l-0.064,0.137l-0.064,0.139l-0.065,0.141l-0.065,0.143l-0.065,0.145l-0.065,0.147l-0.065,0.149l-0.066,0.151l-0.066,0.153l-0.066,0.155l-0.066,0.156l-0.066,0.159l-0.066,0.161l-0.066,0.163l-0.066,0.164l-0.066,0.167l-0.067,0.168l-0.066,0.171l-0.066,0.172l-0.066,0.174l-0.066,0.176l-0.066,0.178l-0.065,0.18l-0.066,0.182l-0.065,0.184l-0.065,0.185l-0.065,0.188l-0.065,0.189l-0.064,0.191l-0.064,0.194l-0.064,0.194l-0.064,0.197l-0.063,0.199l-0.062,0.201l-0.063,0.202l-0.061,0.204l-0.062,0.206l-0.061,0.208l-0.06,0.21l-0.06,0.211l-0.06,0.214l-0.059,0.215l-0.058,0.217l-0.058,0.219l-0.057,0.22l-0.056,0.223l-0.056,0.224l-0.055,0.226l-0.054,0.227l-0.054,0.23l-0.053,0.231l-0.052,0.233l-0.052,0.235l-0.05,0.237l-0.05,0.238l-0.049,0.24l-0.048,0.242l-0.047,0.243l-0.047,0.246l-0.045,0.247l-0.044,0.248l-0.044,0.251l-0.042,0.252l-0.041,0.254l-0.038,0.236l-0.036,0.238l-0.036,0.241l-0.034,0.243l-0.034,0.245l-0.033,0.248l-0.032,0.249l-0.031,0.252l-0.03,0.254l-0.029,0.257l-0.028,0.258l-0.027,0.261l-0.026,0.263l-0.025,0.265l-0.023,0.267l-0.022,0.27l-0.021,0.271l-0.02,0.274l-0.019,0.276l-0.017,0.278l-0.016,0.281l-0.015,0.282l-0.013,0.285l-0.012,0.287l-0.011,0.288l-0.009,0.291l-0.007,0.294l-0.006,0.295l-0.005,0.297l-0.003,0.299l-0.001,0.302l0,0.303l0.002,0.306l0.004,0.308l0.005,0.31l0.007,0.311l0.008,0.314l0.011,0.316l0.012,0.318l0.014,0.32l0.016,0.322l0.017,0.324l0.02,0.326l0.022,0.329l0.023,0.33l0.026,0.332l0.027,0.334l0.03,0.336l0.031,0.338l0.034,0.34l0.036,0.342l0.038,0.344l0.04,0.346l0.042,0.348l0.044,0.349l0.047,0.352l0.049,0.354l0.052,0.355l0.053,0.358l0.056,0.359l0.059,0.362l0.06,0.363l0.064,0.365l0.065,0.367l0.068,0.369l0.071,0.371l0.073,0.373l0.076,0.374l0.079,0.378l0.04,0.187l0.04,0.19l0.042,0.19l0.042,0.19l0.043,0.191l0.043,0.191l0.045,0.192l0.044,0.192l0.046,0.192l0.046,0.193l0.047,0.194l0.048,0.194l0.048,0.194l0.049,0.195l0.05,0.195l0.05,0.196l0.051,0.196l0.052,0.197l0.053,0.197l0.053,0.198l0.054,0.198l0.055,0.198l0.055,0.199l0.056,0.2l0.057,0.199l0.058,0.201l0.058,0.2l0.06,0.202l0.059,0.201l0.061,0.202l0.062,0.203l0.062,0.203l0.063,0.203l0.063,0.204l0.065,0.204l0.065,0.205l0.066,0.205l0.067,0.205l0.068,0.206l0.068,0.207l0.069,0.207l0.07,0.207l0.071,0.208l0.072,0.208l0.072,0.209l0.073,0.209l0.074,0.209l0.075,0.21l0.076,0.21l0.076,0.211l0.077,0.211l0.079,0.212l0.079,0.212l0.079,0.212l0.081,0.213l0.081,0.213l0.083,0.214l0.083,0.214l0.084,0.215l0.085,0.215l0.086,0.215l0.086,0.216l0.088,0.216l0.088,0.217l0.089,0.217l0.09,0.218l0.091,0.217l0.092,0.219l0.093,0.218l0.094,0.22l0.094,0.219l0.096,0.22l0.096,0.221l0.097,0.22l0.099,0.222l0.099,0.221l0.1,0.222l0.101,0.223l0.101,0.222l0.103,0.224l0.104,0.223l0.104,0.224l0.106,0.225l0.107,0.225l0.107,0.225l0.108,0.225l0.11,0.227l0.11,0.226l0.111,0.227l0.112,0.227l0.114,0.228l0.114,0.228l0.115,0.228l0.116,0.229l0.117,0.229l0.118,0.23l0.119,0.23l0.12,0.23l0.121,0.231l0.122,0.231l0.123,0.232l0.124,0.232l0.125,0.232l0.126,0.233l0.127,0.233l0.128,0.233l0.13,0.234l0.13,0.234l0.131,0.235l0.132,0.235l0.133,0.236l0.134,0.235l0.136,0.237l0.136,0.236l0.137,0.237l0.139,0.237l0.139,0.238l0.142,0.24l0.148,0.252l0.149,0.253l0.147,0.254l0.146,0.253l0.144,0.253l0.143,0.252l0.142,0.252l0.14,0.253l0.14,0.251l0.138,0.252l0.136,0.251l0.135,0.251l0.135,0.251l0.132,0.25l0.132,0.25l0.13,0.25l0.129,0.25l0.128,0.249l0.126,0.249l0.125,0.249l0.124,0.248l0.123,0.248l0.122,0.248l0.12,0.248l0.119,0.247l0.118,0.247l0.116,0.247l0.115,0.246l0.115,0.246l0.113,0.246l0.111,0.246l0.111,0.245l0.109,0.245l0.108,0.245l0.107,0.244l0.106,0.244l0.105,0.244l0.103,0.243l0.102,0.243l0.101,0.243l0.1,0.243l0.099,0.242l0.098,0.242l0.096,0.241l0.095,0.241l0.095,0.241l0.093,0.241l0.091,0.24l0.091,0.24l0.09,0.24l0.088,0.239l0.088,0.239l0.086,0.238l0.085,0.239l0.085,0.238l0.083,0.237l0.081,0.238l0.081,0.236l0.08,0.237l0.079,0.236l0.077,0.236l0.077,0.236l0.075,0.235l0.075,0.235l0.073,0.234l0.072,0.234l0.072,0.234l0.07,0.234l0.069,0.233l0.068,0.233l0.067,0.232l0.066,0.232l0.065,0.232l0.064,0.231l0.063,0.231l0.062,0.23l0.061,0.23l0.06,0.23l0.059,0.23l0.058,0.229l0.058,0.228l0.056,0.229l0.055,0.228l0.054,0.227l0.053,0.227l0.052,0.227l0.051,0.227l0.051,0.226l0.049,0.225l0.048,0.225l0.048,0.225l0.046,0.225l0.046,0.224l0.044,0.223l0.044,0.224l0.043,0.223l0.042,0.222l0.04,0.222l0.04,0.222l0.04,0.221l0.038,0.221l0.037,0.22l0.037,0.22l0.035,0.22l0.035,0.219l0.034,0.219l0.033,0.218l0.032,0.218l0.031,0.218l0.03,0.217l0.03,0.216l0.028,0.217l0.028,0.216l0.027,0.215l0.026,0.215l0.026,0.214l0.024,0.215l0.024,0.213l0.023,0.213l0.022,0.213l0.021,0.213l0.02,0.212l0.02,0.211l0.019,0.211l0.018,0.211l0.017,0.21l0.017,0.21l0.015,0.209l0.015,0.209l0.014,0.208l0.014,0.208l0.012,0.207l0.012,0.207l0.012,0.207l0.01,0.206l0.01,0.205l0.008,0.206l0.009,0.204l0.007,0.204l0.007,0.204l0.006,0.203l0.005,0.203l0.005,0.203l0.004,0.201l0.003,0.202l0.003,0.201l0.001,0.2l0.002,0.2l0,0.199l0,0.199l-0.001,0.199l-0.002,0.198l-0.002,0.197l-0.003,0.197l-0.003,0.197l-0.004,0.196l-0.005,0.196l-0.006,0.195l-0.006,0.194l-0.006,0.194l-0.008,0.194l-0.008,0.193l-0.008,0.193l-0.009,0.192l-0.01,0.191l-0.01,0.191l-0.011,0.191l-0.012,0.19l-0.012,0.189l-0.013,0.189l-0.013,0.189l-0.014,0.188l-0.015,0.187l-0.015,0.187l-0.015,0.187l-0.016,0.186l-0.017,0.185l-0.017,0.185l-0.018,0.184l-0.018,0.185l-0.038,0.365l-0.041,0.364l-0.042,0.362l-0.044,0.359l-0.047,0.358l-0.048,0.355l-0.05,0.353l-0.052,0.351l-0.054,0.349l-0.056,0.346l-0.057,0.345l-0.059,0.342l-0.061,0.34l-0.063,0.337l-0.064,0.336l-0.066,0.333l-0.067,0.33l-0.068,0.329l-0.071,0.326l-0.071,0.324l-0.073,0.321l-0.075,0.319l-0.075,0.317l-0.077,0.315l-0.078,0.312l-0.08,0.309l-0.08,0.308l-0.082,0.305l-0.082,0.302l-0.084,0.3l-0.085,0.298l-0.086,0.295l-0.087,0.293l-0.087,0.29l-0.089,0.288l-0.089,0.285l-0.09,0.283l-0.091,0.28l-0.1,0.301l-0.1,0.299l-0.101,0.297l-0.103,0.295l-0.103,0.293l-0.104,0.291l-0.105,0.289l-0.106,0.287l-0.107,0.285l-0.108,0.283l-0.109,0.281l-0.109,0.279l-0.11,0.277l-0.111,0.275l-0.111,0.273l-0.112,0.271l-0.113,0.269l-0.113,0.267l-0.114,0.265l-0.115,0.263l-0.115,0.261l-0.115,0.259l-0.116,0.256l-0.116,0.255l-0.117,0.252l-0.117,0.251l-0.118,0.248l-0.118,0.246l-0.118,0.244l-0.118,0.242l-0.119,0.24l-0.119,0.238l-0.119,0.236l-0.119,0.233l-0.119,0.232l-0.12,0.229l-0.119,0.227l-0.12,0.226l-0.119,0.222l-0.12,0.221l-0.119,0.219l-0.12,0.216l-0.119,0.215l-0.119,0.212l-0.119,0.21l-0.119,0.207l-0.119,0.206l-0.118,0.203l-0.118,0.201l-0.118,0.199l-0.118,0.197l-0.117,0.195l-0.117,0.192l-0.117,0.19l-0.116,0.188l-0.115,0.186l-0.115,0.183l-0.115,0.181l-0.114,0.179l-0.114,0.177l-0.113,0.174l-0.112,0.173l-0.112,0.169l-0.111,0.168l-0.11,0.165l-0.109,0.163l-0.109,0.161l-0.108,0.159l-0.108,0.156l-0.106,0.154l-0.106,0.151l-0.105,0.151l-0.206,0.29l-0.202,0.282l-0.199,0.273l-0.194,0.264l-0.189,0.254l-0.185,0.244l-0.18,0.235l-0.175,0.226l-0.169,0.216l-0.163,0.206l-0.158,0.197l-0.152,0.186l-0.145,0.178l-0.139,0.167l-0.132,0.157l-0.125,0.148l-0.118,0.138l-0.11,0.127l-0.103,0.118l-0.095,0.108l-0.087,0.097l-0.08,0.089l-0.13,0.143l-0.096,0.103l-1.4,1.477l-3.721,-3.705l1.274,-1.479l0.11,-0.128l0.222,-0.262l0.22,-0.261l0.217,-0.263l0.216,-0.265l0.214,-0.266l0.212,-0.267l0.211,-0.268l0.209,-0.27l0.207,-0.271l0.206,-0.272l0.203,-0.274l0.202,-0.275l0.201,-0.276l0.198,-0.277l0.197,-0.278l0.195,-0.28l0.193,-0.281l0.191,-0.282l0.19,-0.284l0.187,-0.284l0.186,-0.286l0.185,-0.287l0.182,-0.288l0.181,-0.29l0.178,-0.29l0.177,-0.292l0.176,-0.292l0.173,-0.294l0.171,-0.295l0.17,-0.296l0.168,-0.297l0.166,-0.298l0.164,-0.3l0.162,-0.3l0.16,-0.301l0.159,-0.303l0.156,-0.303l0.155,-0.305l0.153,-0.305l0.151,-0.307l0.149,-0.307l0.147,-0.309l0.145,-0.309l0.143,-0.311l0.142,-0.311l0.139,-0.313l0.138,-0.313l0.135,-0.314l0.134,-0.316l0.132,-0.316l0.13,-0.317l0.127,-0.318l0.126,-0.319l0.124,-0.319l0.122,-0.321l0.12,-0.321l0.118,-0.323l0.116,-0.323l0.114,-0.324l0.112,-0.325l0.11,-0.325l0.108,-0.327l0.108,-0.332l0.083,-0.259l0.082,-0.256l0.081,-0.26l0.08,-0.261l0.079,-0.263l0.078,-0.266l0.078,-0.268l0.077,-0.271l0.075,-0.272l0.075,-0.275l0.074,-0.277l0.073,-0.279l0.071,-0.281l0.071,-0.284l0.069,-0.285l0.069,-0.288l0.067,-0.29l0.066,-0.292l0.064,-0.294l0.064,-0.297l0.062,-0.298l0.06,-0.3l0.059,-0.303l0.058,-0.304l0.057,-0.307l0.054,-0.309l0.054,-0.311l0.051,-0.312l0.051,-0.315l0.048,-0.317l0.047,-0.319l0.045,-0.32l0.043,-0.323l0.042,-0.325l0.04,-0.327l0.038,-0.328l0.036,-0.331l0.034,-0.332l0.032,-0.335l0.031,-0.338l0.014,-0.167l0.014,-0.17l0.013,-0.169l0.013,-0.171l0.013,-0.171l0.012,-0.171l0.011,-0.172l0.011,-0.172l0.01,-0.172l0.01,-0.174l0.009,-0.173l0.009,-0.174l0.008,-0.175l0.007,-0.175l0.007,-0.175l0.006,-0.176l0.006,-0.177l0.006,-0.176l0.004,-0.178l0.004,-0.177l0.004,-0.179l0.003,-0.178l0.002,-0.179l0.002,-0.18l0.001,-0.18l0.001,-0.18l0,-0.181l-0.001,-0.182l-0.001,-0.182l-0.002,-0.182l-0.003,-0.182l-0.003,-0.184l-0.004,-0.183l-0.004,-0.184l-0.006,-0.185l-0.005,-0.185l-0.007,-0.185l-0.007,-0.186l-0.007,-0.186l-0.009,-0.187l-0.009,-0.187l-0.01,-0.187l-0.01,-0.188l-0.011,-0.188l-0.012,-0.189l-0.012,-0.189l-0.013,-0.19l-0.014,-0.19l-0.015,-0.191l-0.015,-0.191l-0.016,-0.191l-0.017,-0.192l-0.017,-0.192l-0.018,-0.193l-0.019,-0.193l-0.02,-0.193l-0.02,-0.194l-0.021,-0.194l-0.022,-0.195l-0.023,-0.195l-0.023,-0.196l-0.024,-0.195l-0.025,-0.197l-0.025,-0.197l-0.027,-0.197l-0.027,-0.197l-0.028,-0.198l-0.029,-0.199l-0.029,-0.198l-0.03,-0.2l-0.032,-0.199l-0.031,-0.2l-0.033,-0.201l-0.034,-0.2l-0.034,-0.202l-0.035,-0.201l-0.036,-0.202l-0.037,-0.203l-0.038,-0.202l-0.038,-0.204l-0.039,-0.203l-0.041,-0.204l-0.041,-0.204l-0.041,-0.205l-0.043,-0.205l-0.044,-0.206l-0.044,-0.206l-0.045,-0.206l-0.047,-0.207l-0.047,-0.207l-0.048,-0.207l-0.048,-0.208l-0.05,-0.208l-0.051,-0.209l-0.051,-0.209l-0.053,-0.209l-0.053,-0.21l-0.054,-0.21l-0.056,-0.211l-0.056,-0.21l-0.057,-0.212l-0.058,-0.211l-0.059,-0.212l-0.059,-0.213l-0.061,-0.212l-0.062,-0.213l-0.063,-0.214l-0.063,-0.214l-0.065,-0.214l-0.066,-0.214l-0.066,-0.215l-0.068,-0.215l-0.068,-0.216l-0.07,-0.216l-0.07,-0.216l-0.072,-0.217l-0.072,-0.217l-0.074,-0.218l-0.074,-0.217l-0.076,-0.219l-0.076,-0.218l-0.078,-0.219l-0.078,-0.219l-0.08,-0.22l-0.081,-0.22l-0.081,-0.22l-0.083,-0.22l-0.084,-0.221l-0.085,-0.222l-0.085,-0.221l-0.087,-0.222l-0.088,-0.222l-0.089,-0.223l-0.091,-0.223l-0.091,-0.223l-0.092,-0.224l-0.093,-0.224l-0.095,-0.224l-0.096,-0.225l-0.096,-0.225l-0.098,-0.226l-0.099,-0.225l-0.1,-0.226l-0.101,-0.227l-0.102,-0.226l-0.104,-0.227l-0.104,-0.228l-0.106,-0.227l-0.107,-0.228l-0.108,-0.228l-0.109,-0.229l-0.11,-0.229l-0.112,-0.229l-0.112,-0.23l-0.114,-0.23l-0.115,-0.23l-0.116,-0.231l-0.117,-0.23l-0.119,-0.232l-0.12,-0.231l-0.12,-0.232l-0.122,-0.232l-0.124,-0.232l-0.124,-0.233l-0.126,-0.233l-0.127,-0.233l-0.128,-0.234l-0.129,-0.234l-0.131,-0.234l-0.132,-0.235l-0.133,-0.235l-0.134,-0.235l-0.136,-0.235l-0.137,-0.236l-0.138,-0.236l-0.141,-0.239l-0.147,-0.249l-0.148,-0.252l-0.146,-0.251l-0.145,-0.251l-0.145,-0.25l-0.143,-0.25l-0.142,-0.25l-0.141,-0.249l-0.14,-0.249l-0.139,-0.249l-0.138,-0.248l-0.137,-0.248l-0.135,-0.248l-0.135,-0.247l-0.134,-0.247l-0.132,-0.246l-0.132,-0.247l-0.13,-0.245l-0.13,-0.246l-0.128,-0.245l-0.127,-0.244l-0.127,-0.245l-0.125,-0.244l-0.124,-0.243l-0.124,-0.243l-0.122,-0.243l-0.121,-0.243l-0.12,-0.242l-0.119,-0.241l-0.119,-0.242l-0.117,-0.241l-0.116,-0.24l-0.115,-0.24l-0.114,-0.24l-0.114,-0.239l-0.112,-0.239l-0.111,-0.239l-0.11,-0.238l-0.11,-0.238l-0.108,-0.238l-0.107,-0.237l-0.107,-0.236l-0.105,-0.237l-0.105,-0.236l-0.103,-0.235l-0.103,-0.235l-0.101,-0.235l-0.101,-0.234l-0.1,-0.234l-0.099,-0.234l-0.097,-0.233l-0.097,-0.233l-0.096,-0.232l-0.096,-0.232l-0.094,-0.231l-0.093,-0.231l-0.092,-0.231l-0.092,-0.23l-0.09,-0.23l-0.09,-0.23l-0.089,-0.229l-0.087,-0.229l-0.087,-0.228l-0.086,-0.228l-0.086,-0.227l-0.084,-0.227l-0.083,-0.227l-0.083,-0.226l-0.081,-0.226l-0.081,-0.225l-0.08,-0.225l-0.079,-0.225l-0.078,-0.224l-0.078,-0.223l-0.076,-0.224l-0.076,-0.223l-0.075,-0.222l-0.074,-0.222l-0.073,-0.222l-0.072,-0.221l-0.071,-0.22l-0.071,-0.221l-0.07,-0.219l-0.069,-0.22l-0.068,-0.219l-0.067,-0.218l-0.067,-0.218l-0.065,-0.218l-0.065,-0.217l-0.064,-0.217l-0.064,-0.217l-0.062,-0.215l-0.062,-0.216l-0.061,-0.215l-0.06,-0.215l-0.059,-0.214l-0.059,-0.213l-0.058,-0.214l-0.057,-0.212l-0.056,-0.213l-0.056,-0.212l-0.054,-0.211l-0.054,-0.211l-0.054,-0.211l-0.052,-0.21l-0.052,-0.21l-0.051,-0.209l-0.05,-0.208l-0.05,-0.209l-0.049,-0.208l-0.048,-0.207l-0.047,-0.207l-0.047,-0.206l-0.045,-0.206l-0.046,-0.206l-0.044,-0.205l-0.044,-0.204l-0.043,-0.204l-0.042,-0.204l-0.042,-0.203l-0.041,-0.203l-0.04,-0.202l-0.04,-0.202l-0.039,-0.201l-0.038,-0.201l-0.038,-0.202l-0.072,-0.398l-0.071,-0.397l-0.068,-0.395l-0.065,-0.394l-0.062,-0.391l-0.06,-0.39l-0.058,-0.388l-0.055,-0.385l-0.052,-0.384l-0.05,-0.382l-0.048,-0.379l-0.045,-0.378l-0.043,-0.376l-0.04,-0.374l-0.038,-0.371l-0.036,-0.37l-0.034,-0.368l-0.031,-0.365l-0.029,-0.364l-0.027,-0.361l-0.025,-0.36l-0.023,-0.357l-0.021,-0.355l-0.019,-0.354l-0.016,-0.351l-0.015,-0.349l-0.012,-0.346l-0.011,-0.345l-0.009,-0.343l-0.007,-0.34l-0.005,-0.338l-0.003,-0.336l-0.001,-0.334l0,-0.332l0.002,-0.33l0.004,-0.327l0.006,-0.326l0.007,-0.323l0.009,-0.32l0.01,-0.319l0.012,-0.316l0.014,-0.314l0.015,-0.312l0.017,-0.31l0.018,-0.307l0.02,-0.305l0.021,-0.303l0.022,-0.301l0.024,-0.298l0.025,-0.296l0.026,-0.293l0.028,-0.292l0.028,-0.289l0.031,-0.286l0.031,-0.285l0.032,-0.282l0.034,-0.279l0.034,-0.278l0.036,-0.275l0.037,-0.272l0.038,-0.27l0.039,-0.268l0.039,-0.265l0.041,-0.263l0.042,-0.261l0.046,-0.281l0.047,-0.279l0.048,-0.276l0.05,-0.275l0.05,-0.273l0.052,-0.272l0.052,-0.269l0.054,-0.267l0.054,-0.265l0.055,-0.264l0.056,-0.261l0.057,-0.26l0.058,-0.257l0.059,-0.256l0.059,-0.253l0.06,-0.252l0.061,-0.25l0.062,-0.247l0.062,-0.246l0.064,-0.244l0.063,-0.242l0.065,-0.24l0.065,-0.237l0.066,-0.236l0.066,-0.234l0.067,-0.232l0.067,-0.23l0.068,-0.228l0.068,-0.226l0.069,-0.223l0.069,-0.222l0.07,-0.22l0.07,-0.218l0.071,-0.216l0.071,-0.213l0.071,-0.212l0.071,-0.21l0.072,-0.207l0.072,-0.206l0.072,-0.204l0.073,-0.201l0.073,-0.2l0.073,-0.197l0.073,-0.195l0.073,-0.194l0.074,-0.191l0.073,-0.189l0.073,-0.187l0.074,-0.185l0.074,-0.183l0.073,-0.181l0.074,-0.179l0.074,-0.177l0.073,-0.174l0.074,-0.173l0.073,-0.17l0.073,-0.168l0.073,-0.167l0.073,-0.164l0.073,-0.162l0.072,-0.16l0.073,-0.158l0.072,-0.155l0.071,-0.154l0.072,-0.151l0.071,-0.15l0.071,-0.147l0.071,-0.146l0.139,-0.283l0.138,-0.275l0.136,-0.266l0.134,-0.258l0.132,-0.25l0.129,-0.24l0.127,-0.232l0.124,-0.224l0.121,-0.214l0.117,-0.206l0.115,-0.197l0.111,-0.188l0.108,-0.18l0.103,-0.17l0.1,-0.162l0.096,-0.152l0.091,-0.144l0.086,-0.135l0.082,-0.126l0.078,-0.117l0.072,-0.108l0.067,-0.098l0.061,-0.09l0.058,-0.083l0.092,-0.131l0.071,-0.097l1.203,-1.627l4.199,3.272Z" style="fill:#fff;"/><path d="M313.12,276.17l-1.658,-1.431c7.625,-7.646 13.405,-16.588 16.986,-26.278c5.636,-15.001 8.39,-38.693 -10.506,-66.367c-19.332,-28.316 -20.203,-51.314 -17.529,-65.621c2.911,-15.568 10.335,-24.295 10.65,-24.658l1.841,1.244c-0.074,0.085 -7.434,8.765 -10.227,23.869c-2.578,13.944 -1.679,36.385 17.249,64.106c19.378,28.383 16.508,52.732 10.687,68.16c-6.306,16.716 -17.039,26.565 -17.493,26.976Z" style="fill:#fff;fill-rule:nonzero;"/><path d="M315.735,92.666l-1.391,1.649l-0.055,0.067l-0.095,0.118l-0.059,0.074l-0.069,0.088l-0.077,0.1l-0.086,0.113l-0.093,0.124l-0.102,0.136l-0.108,0.148l-0.116,0.159l-0.123,0.172l-0.129,0.183l-0.135,0.195l-0.142,0.206l-0.147,0.218l-0.153,0.229l-0.158,0.24l-0.164,0.254l-0.082,0.129l-0.084,0.133l-0.086,0.136l-0.087,0.138l-0.087,0.142l-0.089,0.144l-0.089,0.147l-0.091,0.15l-0.091,0.152l-0.093,0.156l-0.093,0.158l-0.094,0.161l-0.094,0.163l-0.096,0.166l-0.096,0.17l-0.097,0.171l-0.097,0.175l-0.098,0.177l-0.099,0.18l-0.099,0.183l-0.1,0.185l-0.1,0.188l-0.1,0.191l-0.101,0.193l-0.102,0.196l-0.101,0.199l-0.102,0.201l-0.102,0.204l-0.103,0.207l-0.102,0.209l-0.103,0.212l-0.103,0.214l-0.103,0.218l-0.104,0.219l-0.103,0.222l-0.103,0.225l-0.103,0.228l-0.103,0.23l-0.103,0.233l-0.103,0.235l-0.103,0.238l-0.102,0.24l-0.102,0.243l-0.102,0.245l-0.102,0.248l-0.101,0.251l-0.101,0.253l-0.101,0.255l-0.1,0.258l-0.1,0.261l-0.099,0.263l-0.098,0.266l-0.099,0.267l-0.097,0.271l-0.097,0.273l-0.096,0.275l-0.096,0.278l-0.094,0.281l-0.094,0.282l-0.094,0.286l-0.092,0.287l-0.092,0.291l-0.09,0.292l-0.09,0.295l-0.089,0.297l-0.088,0.3l-0.086,0.302l-0.086,0.305l-0.085,0.307l-0.083,0.309l-0.082,0.312l-0.081,0.314l-0.08,0.316l-0.079,0.319l-0.077,0.321l-0.076,0.324l-0.075,0.325l-0.073,0.328l-0.072,0.331l-0.071,0.333l-0.068,0.335l-0.068,0.337l-0.066,0.34l-0.064,0.342l-0.058,0.318l-0.057,0.321l-0.055,0.324l-0.054,0.328l-0.052,0.33l-0.052,0.333l-0.049,0.336l-0.048,0.339l-0.047,0.343l-0.045,0.345l-0.044,0.348l-0.041,0.351l-0.04,0.354l-0.039,0.357l-0.036,0.36l-0.035,0.363l-0.032,0.365l-0.031,0.371l-0.015,0.184l-0.014,0.186l-0.014,0.187l-0.013,0.187l-0.013,0.189l-0.012,0.189l-0.011,0.189l-0.012,0.191l-0.01,0.191l-0.01,0.192l-0.01,0.193l-0.009,0.193l-0.008,0.194l-0.008,0.195l-0.007,0.195l-0.007,0.196l-0.006,0.197l-0.006,0.198l-0.005,0.198l-0.004,0.199l-0.004,0.2l-0.003,0.2l-0.003,0.201l-0.002,0.202l-0.001,0.203l-0.001,0.203l0,0.204l0.001,0.204l0.001,0.206l0.001,0.206l0.003,0.206l0.003,0.208l0.004,0.208l0.004,0.209l0.005,0.209l0.006,0.21l0.006,0.211l0.007,0.212l0.008,0.212l0.008,0.213l0.009,0.213l0.01,0.215l0.011,0.215l0.011,0.215l0.012,0.216l0.012,0.217l0.014,0.218l0.014,0.219l0.015,0.219l0.015,0.219l0.017,0.221l0.017,0.221l0.018,0.221l0.018,0.223l0.02,0.223l0.02,0.224l0.021,0.224l0.022,0.225l0.022,0.226l0.023,0.226l0.024,0.227l0.025,0.228l0.026,0.229l0.027,0.229l0.027,0.229l0.028,0.231l0.029,0.231l0.03,0.232l0.031,0.232l0.031,0.233l0.032,0.234l0.034,0.234l0.034,0.235l0.035,0.235l0.036,0.237l0.036,0.237l0.038,0.237l0.038,0.239l0.04,0.239l0.04,0.239l0.041,0.24l0.042,0.241l0.043,0.242l0.044,0.242l0.045,0.242l0.046,0.244l0.046,0.244l0.048,0.244l0.048,0.246l0.05,0.246l0.05,0.246l0.052,0.248l0.052,0.247l0.054,0.249l0.054,0.249l0.055,0.25l0.056,0.25l0.058,0.251l0.058,0.252l0.059,0.252l0.061,0.253l0.061,0.253l0.062,0.255l0.064,0.254l0.064,0.256l0.065,0.256l0.067,0.256l0.067,0.258l0.069,0.257l0.07,0.259l0.07,0.259l0.072,0.26l0.073,0.26l0.074,0.261l0.074,0.262l0.077,0.262l0.077,0.263l0.078,0.263l0.079,0.264l0.081,0.265l0.081,0.265l0.083,0.266l0.084,0.266l0.084,0.267l0.087,0.268l0.087,0.268l0.088,0.269l0.09,0.269l0.09,0.27l0.092,0.271l0.093,0.271l0.094,0.272l0.095,0.272l0.097,0.274l0.098,0.273l0.098,0.274l0.1,0.275l0.102,0.276l0.102,0.276l0.104,0.276l0.105,0.277l0.106,0.278l0.107,0.278l0.109,0.279l0.11,0.28l0.111,0.28l0.112,0.281l0.114,0.281l0.114,0.282l0.117,0.282l0.117,0.283l0.119,0.284l0.12,0.284l0.121,0.284l0.122,0.286l0.124,0.285l0.125,0.287l0.127,0.287l0.127,0.287l0.129,0.289l0.131,0.288l0.132,0.29l0.133,0.289l0.134,0.291l0.136,0.291l0.137,0.291l0.138,0.292l0.14,0.293l0.141,0.293l0.143,0.294l0.144,0.294l0.145,0.295l0.147,0.295l0.148,0.296l0.149,0.297l0.151,0.297l0.152,0.297l0.154,0.299l0.155,0.298l0.157,0.3l0.158,0.299l0.159,0.301l0.161,0.301l0.163,0.301l0.163,0.302l0.166,0.303l0.166,0.303l0.169,0.303l0.169,0.304l0.171,0.305l0.173,0.305l0.174,0.306l0.176,0.306l0.177,0.307l0.178,0.307l0.18,0.308l0.182,0.309l0.183,0.309l0.185,0.309l0.186,0.31l0.188,0.31l0.189,0.311l0.191,0.312l0.192,0.312l0.194,0.313l0.196,0.313l0.197,0.313l0.199,0.314l0.2,0.315l0.202,0.315l0.203,0.316l0.205,0.316l0.207,0.317l0.208,0.317l0.21,0.318l0.211,0.318l0.213,0.319l0.215,0.319l0.217,0.32l0.219,0.322l0.229,0.336l0.228,0.338l0.226,0.337l0.223,0.338l0.222,0.336l0.22,0.337l0.218,0.336l0.216,0.336l0.214,0.335l0.212,0.335l0.21,0.335l0.207,0.334l0.206,0.334l0.204,0.334l0.203,0.333l0.2,0.333l0.198,0.333l0.196,0.332l0.194,0.332l0.193,0.331l0.19,0.331l0.189,0.331l0.186,0.33l0.185,0.33l0.183,0.33l0.181,0.329l0.179,0.328l0.177,0.329l0.176,0.328l0.173,0.327l0.172,0.327l0.17,0.327l0.168,0.327l0.166,0.326l0.164,0.325l0.163,0.325l0.16,0.325l0.159,0.324l0.157,0.324l0.156,0.324l0.153,0.323l0.152,0.323l0.15,0.322l0.148,0.322l0.146,0.321l0.145,0.321l0.143,0.321l0.141,0.32l0.14,0.32l0.138,0.319l0.136,0.319l0.134,0.318l0.133,0.318l0.131,0.318l0.129,0.317l0.128,0.317l0.126,0.316l0.124,0.315l0.122,0.316l0.121,0.315l0.12,0.314l0.117,0.314l0.116,0.313l0.114,0.313l0.113,0.313l0.111,0.312l0.11,0.312l0.108,0.311l0.106,0.31l0.105,0.311l0.103,0.309l0.101,0.31l0.1,0.308l0.099,0.309l0.097,0.307l0.095,0.308l0.094,0.306l0.092,0.307l0.091,0.306l0.089,0.305l0.088,0.305l0.086,0.304l0.084,0.304l0.084,0.303l0.081,0.303l0.08,0.303l0.079,0.301l0.077,0.302l0.076,0.3l0.075,0.301l0.072,0.299l0.072,0.3l0.07,0.298l0.068,0.298l0.068,0.298l0.065,0.297l0.065,0.297l0.063,0.296l0.061,0.295l0.06,0.295l0.059,0.295l0.058,0.294l0.056,0.293l0.054,0.293l0.054,0.292l0.052,0.292l0.05,0.291l0.05,0.29l0.048,0.29l0.046,0.29l0.046,0.289l0.044,0.288l0.042,0.288l0.042,0.287l0.04,0.287l0.039,0.286l0.038,0.285l0.036,0.285l0.035,0.284l0.034,0.284l0.033,0.283l0.031,0.283l0.03,0.282l0.029,0.281l0.028,0.281l0.026,0.28l0.026,0.28l0.024,0.279l0.023,0.278l0.022,0.278l0.02,0.277l0.02,0.277l0.018,0.276l0.017,0.275l0.016,0.275l0.015,0.274l0.014,0.274l0.012,0.273l0.012,0.272l0.01,0.272l0.01,0.271l0.008,0.27l0.007,0.27l0.006,0.269l0.005,0.269l0.004,0.268l0.003,0.267l0.001,0.266l0.001,0.266l0,0.266l-0.002,0.264l-0.002,0.265l-0.003,0.263l-0.005,0.262l-0.005,0.263l-0.007,0.261l-0.007,0.261l-0.008,0.26l-0.01,0.259l-0.01,0.259l-0.011,0.258l-0.012,0.257l-0.014,0.257l-0.014,0.257l-0.015,0.255l-0.016,0.254l-0.017,0.255l-0.017,0.253l-0.019,0.253l-0.02,0.252l-0.02,0.251l-0.021,0.251l-0.023,0.25l-0.023,0.249l-0.024,0.248l-0.024,0.248l-0.026,0.247l-0.027,0.247l-0.027,0.246l-0.028,0.245l-0.029,0.244l-0.03,0.244l-0.03,0.243l-0.032,0.242l-0.032,0.242l-0.033,0.24l-0.034,0.24l-0.034,0.24l-0.035,0.238l-0.036,0.238l-0.037,0.237l-0.037,0.237l-0.039,0.236l-0.039,0.235l-0.039,0.234l-0.041,0.234l-0.041,0.232l-0.041,0.232l-0.043,0.232l-0.043,0.23l-0.044,0.23l-0.044,0.229l-0.045,0.228l-0.046,0.228l-0.047,0.227l-0.047,0.226l-0.047,0.225l-0.049,0.225l-0.049,0.224l-0.049,0.223l-0.051,0.222l-0.05,0.222l-0.052,0.221l-0.052,0.22l-0.052,0.219l-0.053,0.218l-0.054,0.218l-0.054,0.217l-0.055,0.216l-0.055,0.215l-0.056,0.215l-0.056,0.214l-0.057,0.213l-0.057,0.212l-0.058,0.211l-0.058,0.211l-0.059,0.21l-0.06,0.209l-0.059,0.208l-0.061,0.208l-0.06,0.207l-0.062,0.206l-0.061,0.205l-0.062,0.204l-0.063,0.204l-0.063,0.202l-0.063,0.202l-0.064,0.201l-0.064,0.2l-0.065,0.2l-0.065,0.198l-0.065,0.198l-0.066,0.198l-0.066,0.196l-0.066,0.195l-0.067,0.194l-0.067,0.194l-0.068,0.193l-0.067,0.192l-0.069,0.191l-0.068,0.191l-0.069,0.191l-0.138,0.375l-0.139,0.372l-0.077,0.202l-0.076,0.2l-0.077,0.199l-0.078,0.199l-0.077,0.198l-0.078,0.198l-0.079,0.196l-0.078,0.197l-0.08,0.195l-0.079,0.195l-0.08,0.194l-0.081,0.195l-0.161,0.383l-0.163,0.383l-0.164,0.379l-0.165,0.377l-0.167,0.375l-0.168,0.371l-0.169,0.369l-0.17,0.366l-0.171,0.364l-0.172,0.361l-0.173,0.358l-0.174,0.355l-0.175,0.353l-0.176,0.35l-0.176,0.347l-0.177,0.344l-0.178,0.342l-0.179,0.339l-0.179,0.336l-0.18,0.333l-0.18,0.33l-0.181,0.328l-0.181,0.325l-0.182,0.322l-0.182,0.319l-0.182,0.317l-0.183,0.314l-0.183,0.31l-0.183,0.308l-0.183,0.305l-0.183,0.303l-0.184,0.299l-0.183,0.297l-0.184,0.293l-0.183,0.291l-0.183,0.288l-0.183,0.285l-0.183,0.282l-0.183,0.279l-0.182,0.277l-0.182,0.273l-0.182,0.27l-0.181,0.268l-0.181,0.264l-0.18,0.262l-0.18,0.259l-0.179,0.255l-0.178,0.253l-0.178,0.25l-0.178,0.247l-0.176,0.243l-0.176,0.241l-0.175,0.238l-0.174,0.235l-0.173,0.232l-0.172,0.228l-0.171,0.226l-0.17,0.223l-0.169,0.219l-0.168,0.217l-0.166,0.213l-0.166,0.211l-0.164,0.207l-0.163,0.205l-0.161,0.201l-0.161,0.198l-0.158,0.195l-0.158,0.192l-0.156,0.189l-0.154,0.185l-0.152,0.183l-0.152,0.18l-0.149,0.176l-0.148,0.173l-0.145,0.17l-0.144,0.167l-0.143,0.164l-0.14,0.16l-0.138,0.158l-0.137,0.154l-0.134,0.151l-0.134,0.149l-0.257,0.285l-0.25,0.273l-0.24,0.26l-0.232,0.247l-0.221,0.234l-0.212,0.221l-0.201,0.208l-0.19,0.195l-0.179,0.181l-0.168,0.169l-0.156,0.154l-0.144,0.142l-0.131,0.127l-0.119,0.115l-0.106,0.101l-0.093,0.088l-0.141,0.131l-1.331,1.219l-4.496,-3.881l1.622,-1.631l0.173,-0.175l0.173,-0.176l0.172,-0.177l0.171,-0.177l0.171,-0.177l0.17,-0.178l0.169,-0.178l0.169,-0.179l0.168,-0.179l0.168,-0.179l0.166,-0.18l0.166,-0.181l0.166,-0.181l0.164,-0.181l0.164,-0.182l0.163,-0.182l0.163,-0.182l0.162,-0.184l0.161,-0.183l0.161,-0.184l0.16,-0.184l0.159,-0.185l0.158,-0.185l0.158,-0.186l0.157,-0.186l0.157,-0.186l0.155,-0.187l0.155,-0.187l0.155,-0.188l0.154,-0.188l0.153,-0.189l0.152,-0.189l0.151,-0.189l0.151,-0.19l0.15,-0.19l0.15,-0.19l0.149,-0.191l0.148,-0.192l0.147,-0.191l0.147,-0.192l0.146,-0.193l0.145,-0.193l0.145,-0.193l0.144,-0.194l0.143,-0.194l0.142,-0.194l0.142,-0.195l0.141,-0.195l0.14,-0.196l0.14,-0.196l0.139,-0.196l0.138,-0.197l0.138,-0.197l0.136,-0.198l0.136,-0.198l0.136,-0.198l0.134,-0.198l0.134,-0.199l0.133,-0.2l0.133,-0.2l0.131,-0.2l0.131,-0.2l0.131,-0.201l0.129,-0.201l0.129,-0.202l0.128,-0.201l0.128,-0.203l0.126,-0.202l0.126,-0.203l0.125,-0.203l0.125,-0.204l0.124,-0.204l0.122,-0.204l0.123,-0.205l0.121,-0.205l0.121,-0.205l0.12,-0.206l0.119,-0.206l0.119,-0.206l0.118,-0.207l0.117,-0.207l0.116,-0.208l0.116,-0.207l0.115,-0.208l0.114,-0.209l0.113,-0.208l0.113,-0.209l0.112,-0.21l0.111,-0.209l0.11,-0.21l0.11,-0.21l0.109,-0.211l0.108,-0.211l0.107,-0.211l0.107,-0.212l0.105,-0.211l0.106,-0.213l0.104,-0.212l0.104,-0.213l0.102,-0.213l0.102,-0.213l0.102,-0.214l0.1,-0.214l0.1,-0.214l0.099,-0.215l0.098,-0.215l0.098,-0.215l0.096,-0.215l0.096,-0.216l0.096,-0.216l0.094,-0.216l0.094,-0.217l0.093,-0.217l0.092,-0.217l0.091,-0.217l0.091,-0.218l0.089,-0.218l0.089,-0.218l0.089,-0.219l0.087,-0.218l0.087,-0.22l0.086,-0.219l0.085,-0.219l0.084,-0.22l0.084,-0.22l0.082,-0.221l0.084,-0.225l0.13,-0.349l0.127,-0.346l0.125,-0.349l0.125,-0.353l0.061,-0.176l0.062,-0.178l0.061,-0.179l0.061,-0.18l0.06,-0.18l0.06,-0.181l0.06,-0.182l0.059,-0.182l0.059,-0.184l0.059,-0.184l0.058,-0.184l0.058,-0.186l0.058,-0.186l0.057,-0.187l0.057,-0.188l0.056,-0.188l0.056,-0.189l0.055,-0.19l0.055,-0.191l0.055,-0.191l0.054,-0.192l0.054,-0.193l0.053,-0.193l0.053,-0.195l0.053,-0.194l0.051,-0.196l0.052,-0.197l0.051,-0.197l0.05,-0.197l0.05,-0.199l0.05,-0.199l0.048,-0.2l0.049,-0.2l0.048,-0.202l0.047,-0.202l0.047,-0.202l0.046,-0.204l0.046,-0.204l0.045,-0.205l0.045,-0.205l0.044,-0.206l0.043,-0.207l0.043,-0.208l0.042,-0.208l0.042,-0.209l0.041,-0.209l0.041,-0.211l0.039,-0.211l0.04,-0.211l0.038,-0.213l0.038,-0.212l0.038,-0.214l0.036,-0.214l0.036,-0.215l0.036,-0.216l0.034,-0.216l0.034,-0.217l0.034,-0.218l0.032,-0.218l0.032,-0.219l0.032,-0.22l0.03,-0.22l0.03,-0.221l0.029,-0.222l0.029,-0.222l0.027,-0.223l0.027,-0.223l0.026,-0.225l0.026,-0.224l0.025,-0.226l0.023,-0.226l0.024,-0.227l0.022,-0.227l0.022,-0.228l0.02,-0.229l0.02,-0.229l0.02,-0.23l0.018,-0.231l0.018,-0.231l0.016,-0.232l0.016,-0.232l0.015,-0.233l0.015,-0.234l0.013,-0.234l0.013,-0.235l0.011,-0.236l0.011,-0.236l0.01,-0.237l0.009,-0.238l0.008,-0.237l0.007,-0.239l0.007,-0.239l0.005,-0.24l0.005,-0.241l0.004,-0.241l0.002,-0.242l0.002,-0.242l0.001,-0.243l0,-0.244l-0.001,-0.244l-0.002,-0.244l-0.003,-0.246l-0.004,-0.246l-0.005,-0.246l-0.006,-0.247l-0.007,-0.248l-0.008,-0.248l-0.009,-0.249l-0.01,-0.25l-0.011,-0.25l-0.012,-0.25l-0.013,-0.252l-0.014,-0.252l-0.015,-0.252l-0.016,-0.253l-0.017,-0.253l-0.019,-0.255l-0.019,-0.254l-0.02,-0.256l-0.022,-0.255l-0.022,-0.257l-0.024,-0.257l-0.025,-0.258l-0.026,-0.258l-0.027,-0.258l-0.028,-0.26l-0.029,-0.26l-0.031,-0.26l-0.031,-0.261l-0.033,-0.261l-0.034,-0.263l-0.035,-0.262l-0.036,-0.263l-0.037,-0.264l-0.039,-0.265l-0.04,-0.264l-0.041,-0.266l-0.042,-0.266l-0.043,-0.266l-0.045,-0.267l-0.046,-0.268l-0.047,-0.268l-0.048,-0.269l-0.05,-0.269l-0.05,-0.27l-0.052,-0.27l-0.054,-0.271l-0.054,-0.272l-0.056,-0.272l-0.057,-0.272l-0.059,-0.273l-0.059,-0.274l-0.061,-0.274l-0.063,-0.274l-0.063,-0.276l-0.065,-0.275l-0.067,-0.276l-0.067,-0.277l-0.069,-0.277l-0.071,-0.278l-0.072,-0.278l-0.073,-0.279l-0.074,-0.28l-0.076,-0.28l-0.077,-0.28l-0.079,-0.281l-0.08,-0.281l-0.081,-0.282l-0.083,-0.282l-0.084,-0.283l-0.086,-0.284l-0.087,-0.284l-0.089,-0.284l-0.09,-0.285l-0.091,-0.286l-0.093,-0.285l-0.095,-0.287l-0.095,-0.287l-0.098,-0.287l-0.099,-0.288l-0.1,-0.289l-0.102,-0.289l-0.103,-0.289l-0.105,-0.29l-0.107,-0.291l-0.107,-0.29l-0.11,-0.292l-0.111,-0.292l-0.113,-0.292l-0.114,-0.293l-0.115,-0.293l-0.118,-0.294l-0.119,-0.294l-0.12,-0.295l-0.122,-0.295l-0.124,-0.296l-0.125,-0.296l-0.127,-0.297l-0.128,-0.297l-0.13,-0.298l-0.132,-0.298l-0.134,-0.298l-0.135,-0.299l-0.136,-0.3l-0.139,-0.3l-0.14,-0.3l-0.141,-0.301l-0.144,-0.301l-0.145,-0.302l-0.147,-0.302l-0.148,-0.303l-0.15,-0.303l-0.152,-0.303l-0.154,-0.304l-0.155,-0.305l-0.158,-0.305l-0.158,-0.305l-0.161,-0.306l-0.162,-0.306l-0.165,-0.307l-0.165,-0.307l-0.168,-0.307l-0.17,-0.308l-0.171,-0.309l-0.173,-0.309l-0.175,-0.309l-0.177,-0.31l-0.178,-0.31l-0.181,-0.31l-0.182,-0.311l-0.184,-0.312l-0.186,-0.312l-0.188,-0.312l-0.189,-0.313l-0.192,-0.313l-0.193,-0.313l-0.196,-0.314l-0.197,-0.314l-0.199,-0.315l-0.201,-0.315l-0.203,-0.316l-0.205,-0.316l-0.206,-0.316l-0.209,-0.317l-0.211,-0.317l-0.212,-0.318l-0.215,-0.318l-0.218,-0.321l-0.227,-0.333l-0.227,-0.336l-0.226,-0.335l-0.223,-0.334l-0.222,-0.334l-0.221,-0.334l-0.218,-0.333l-0.217,-0.333l-0.215,-0.332l-0.214,-0.332l-0.212,-0.331l-0.211,-0.331l-0.208,-0.33l-0.208,-0.33l-0.205,-0.329l-0.204,-0.329l-0.202,-0.328l-0.201,-0.328l-0.199,-0.327l-0.198,-0.327l-0.195,-0.327l-0.195,-0.325l-0.192,-0.326l-0.192,-0.325l-0.189,-0.324l-0.188,-0.324l-0.187,-0.323l-0.184,-0.323l-0.184,-0.322l-0.182,-0.322l-0.18,-0.322l-0.179,-0.321l-0.177,-0.32l-0.175,-0.32l-0.175,-0.319l-0.172,-0.319l-0.171,-0.318l-0.17,-0.318l-0.168,-0.317l-0.167,-0.317l-0.165,-0.316l-0.164,-0.316l-0.162,-0.315l-0.16,-0.315l-0.16,-0.314l-0.157,-0.313l-0.157,-0.313l-0.155,-0.313l-0.153,-0.312l-0.152,-0.312l-0.151,-0.31l-0.149,-0.311l-0.147,-0.31l-0.147,-0.309l-0.145,-0.309l-0.143,-0.308l-0.142,-0.308l-0.141,-0.307l-0.139,-0.307l-0.138,-0.306l-0.136,-0.306l-0.135,-0.305l-0.134,-0.304l-0.132,-0.304l-0.131,-0.304l-0.13,-0.302l-0.128,-0.303l-0.127,-0.301l-0.126,-0.302l-0.124,-0.3l-0.123,-0.3l-0.122,-0.3l-0.12,-0.299l-0.119,-0.298l-0.118,-0.298l-0.116,-0.297l-0.115,-0.297l-0.114,-0.296l-0.112,-0.295l-0.111,-0.295l-0.11,-0.295l-0.109,-0.294l-0.107,-0.293l-0.106,-0.293l-0.105,-0.292l-0.104,-0.291l-0.102,-0.291l-0.101,-0.29l-0.1,-0.29l-0.099,-0.289l-0.097,-0.289l-0.096,-0.288l-0.095,-0.287l-0.094,-0.287l-0.092,-0.287l-0.092,-0.285l-0.09,-0.285l-0.089,-0.285l-0.087,-0.284l-0.087,-0.283l-0.085,-0.283l-0.085,-0.282l-0.083,-0.281l-0.082,-0.281l-0.08,-0.28l-0.08,-0.28l-0.078,-0.279l-0.078,-0.278l-0.076,-0.278l-0.075,-0.278l-0.074,-0.276l-0.073,-0.276l-0.071,-0.276l-0.071,-0.274l-0.07,-0.275l-0.068,-0.273l-0.067,-0.273l-0.067,-0.272l-0.065,-0.272l-0.064,-0.271l-0.063,-0.27l-0.062,-0.27l-0.061,-0.269l-0.059,-0.269l-0.059,-0.268l-0.058,-0.267l-0.057,-0.267l-0.055,-0.266l-0.055,-0.265l-0.054,-0.265l-0.052,-0.264l-0.052,-0.263l-0.05,-0.263l-0.05,-0.262l-0.049,-0.262l-0.047,-0.26l-0.047,-0.261l-0.045,-0.259l-0.045,-0.259l-0.044,-0.258l-0.043,-0.258l-0.041,-0.257l-0.041,-0.256l-0.04,-0.256l-0.039,-0.255l-0.038,-0.254l-0.037,-0.254l-0.036,-0.252l-0.035,-0.253l-0.035,-0.251l-0.033,-0.251l-0.033,-0.251l-0.031,-0.249l-0.031,-0.249l-0.03,-0.248l-0.029,-0.248l-0.028,-0.247l-0.027,-0.246l-0.026,-0.246l-0.026,-0.245l-0.024,-0.244l-0.024,-0.243l-0.023,-0.243l-0.022,-0.242l-0.021,-0.242l-0.02,-0.241l-0.02,-0.24l-0.019,-0.239l-0.018,-0.239l-0.017,-0.238l-0.016,-0.237l-0.016,-0.237l-0.014,-0.235l-0.014,-0.236l-0.014,-0.234l-0.012,-0.234l-0.012,-0.233l-0.01,-0.232l-0.01,-0.232l-0.01,-0.231l-0.008,-0.23l-0.008,-0.23l-0.007,-0.229l-0.007,-0.228l-0.005,-0.227l-0.005,-0.227l-0.005,-0.226l-0.003,-0.225l-0.003,-0.225l-0.002,-0.224l-0.001,-0.223l-0.001,-0.222l0,-0.222l0.001,-0.221l0.001,-0.22l0.002,-0.219l0.003,-0.219l0.003,-0.218l0.004,-0.217l0.004,-0.217l0.006,-0.215l0.006,-0.215l0.006,-0.215l0.007,-0.213l0.008,-0.213l0.008,-0.212l0.009,-0.211l0.01,-0.211l0.01,-0.21l0.011,-0.209l0.011,-0.208l0.012,-0.208l0.013,-0.207l0.013,-0.206l0.013,-0.205l0.015,-0.204l0.014,-0.204l0.016,-0.203l0.016,-0.203l0.016,-0.201l0.017,-0.201l0.017,-0.2l0.018,-0.199l0.019,-0.198l0.019,-0.198l0.02,-0.198l0.04,-0.391l0.042,-0.388l0.045,-0.385l0.046,-0.382l0.048,-0.379l0.05,-0.376l0.051,-0.373l0.054,-0.37l0.055,-0.366l0.056,-0.363l0.058,-0.36l0.06,-0.357l0.061,-0.354l0.062,-0.35l0.064,-0.348l0.071,-0.374l0.073,-0.371l0.074,-0.369l0.076,-0.367l0.078,-0.364l0.079,-0.361l0.08,-0.359l0.083,-0.356l0.083,-0.353l0.085,-0.351l0.086,-0.349l0.088,-0.345l0.088,-0.343l0.09,-0.341l0.092,-0.338l0.092,-0.335l0.094,-0.332l0.095,-0.33l0.096,-0.328l0.097,-0.324l0.098,-0.322l0.099,-0.32l0.1,-0.316l0.1,-0.315l0.102,-0.311l0.103,-0.309l0.103,-0.306l0.104,-0.303l0.105,-0.301l0.106,-0.297l0.106,-0.296l0.107,-0.292l0.108,-0.29l0.108,-0.287l0.109,-0.285l0.109,-0.281l0.11,-0.28l0.11,-0.276l0.11,-0.273l0.111,-0.271l0.112,-0.268l0.111,-0.265l0.112,-0.263l0.112,-0.26l0.113,-0.257l0.112,-0.254l0.113,-0.252l0.113,-0.248l0.112,-0.246l0.113,-0.244l0.113,-0.24l0.113,-0.238l0.113,-0.234l0.112,-0.233l0.113,-0.229l0.112,-0.226l0.112,-0.224l0.112,-0.221l0.112,-0.218l0.112,-0.215l0.111,-0.212l0.11,-0.21l0.111,-0.207l0.109,-0.204l0.11,-0.2l0.109,-0.199l0.108,-0.195l0.108,-0.193l0.107,-0.189l0.106,-0.187l0.106,-0.184l0.105,-0.181l0.105,-0.178l0.103,-0.176l0.103,-0.172l0.102,-0.169l0.101,-0.167l0.1,-0.164l0.1,-0.161l0.098,-0.158l0.097,-0.155l0.097,-0.152l0.095,-0.149l0.094,-0.146l0.093,-0.144l0.091,-0.14l0.091,-0.138l0.09,-0.136l0.174,-0.259l0.169,-0.249l0.164,-0.236l0.158,-0.225l0.151,-0.214l0.145,-0.201l0.139,-0.189l0.131,-0.177l0.124,-0.166l0.117,-0.153l0.109,-0.141l0.101,-0.129l0.093,-0.117l0.084,-0.105l0.075,-0.093l0.067,-0.082l0.102,-0.122l1.165,-1.365l5.017,3.39Z" style="fill:#fff;"/><path d="M455.97,276.316l-1.081,-0.761c4.894,-4.174 8.586,-9.035 10.849,-14.284c3.566,-8.128 5.216,-20.922 -7.171,-35.72c-12.673,-15.14 -13.365,-27.536 -11.714,-35.27c1.797,-8.415 6.555,-13.17 6.756,-13.368l1.199,0.658c-0.047,0.047 -4.763,4.777 -6.487,12.94c-1.591,7.537 -0.883,19.633 11.524,34.456c12.704,15.176 10.981,28.326 7.3,36.685c-3.99,9.056 -10.883,14.439 -11.175,14.664Z" style="fill:#fff;fill-rule:nonzero;"/><path d="M457.949,177.117l-1.794,1.809l-0.028,0.03l-0.054,0.056l-0.076,0.082l-0.099,0.111l-0.055,0.061l-0.061,0.07l-0.066,0.077l-0.071,0.082l-0.074,0.089l-0.079,0.095l-0.083,0.102l-0.087,0.107l-0.09,0.114l-0.094,0.119l-0.097,0.126l-0.1,0.132l-0.103,0.138l-0.106,0.143l-0.108,0.15l-0.111,0.156l-0.113,0.161l-0.115,0.167l-0.117,0.173l-0.119,0.179l-0.12,0.184l-0.122,0.19l-0.124,0.198l-0.061,0.098l-0.062,0.102l-0.062,0.102l-0.063,0.105l-0.062,0.105l-0.063,0.107l-0.063,0.108l-0.063,0.11l-0.064,0.111l-0.063,0.112l-0.063,0.114l-0.063,0.115l-0.064,0.117l-0.063,0.118l-0.063,0.119l-0.063,0.12l-0.064,0.123l-0.063,0.123l-0.063,0.124l-0.062,0.126l-0.063,0.127l-0.062,0.129l-0.063,0.13l-0.062,0.13l-0.061,0.133l-0.062,0.134l-0.061,0.135l-0.061,0.136l-0.06,0.137l-0.061,0.139l-0.06,0.14l-0.059,0.142l-0.059,0.142l-0.059,0.144l-0.058,0.146l-0.058,0.146l-0.057,0.148l-0.056,0.149l-0.057,0.15l-0.055,0.152l-0.055,0.152l-0.055,0.154l-0.053,0.156l-0.054,0.156l-0.052,0.157l-0.052,0.159l-0.051,0.161l-0.05,0.161l-0.05,0.162l-0.049,0.164l-0.048,0.165l-0.047,0.166l-0.047,0.167l-0.046,0.169l-0.044,0.17l-0.044,0.171l-0.043,0.172l-0.043,0.173l-0.041,0.175l-0.04,0.175l-0.039,0.177l-0.038,0.178l-0.035,0.166l-0.033,0.167l-0.033,0.168l-0.032,0.17l-0.031,0.172l-0.03,0.173l-0.029,0.175l-0.028,0.176l-0.027,0.178l-0.027,0.179l-0.025,0.181l-0.024,0.183l-0.023,0.184l-0.022,0.185l-0.021,0.188l-0.019,0.188l-0.019,0.19l-0.017,0.192l-0.016,0.193l-0.015,0.195l-0.013,0.196l-0.012,0.198l-0.011,0.199l-0.01,0.201l-0.008,0.202l-0.006,0.203l-0.005,0.206l-0.004,0.206l-0.002,0.208l-0.001,0.21l0.001,0.211l0.002,0.213l0.004,0.214l0.006,0.215l0.007,0.217l0.009,0.218l0.011,0.22l0.012,0.222l0.014,0.222l0.016,0.225l0.018,0.225l0.019,0.227l0.022,0.229l0.023,0.23l0.025,0.231l0.028,0.233l0.029,0.234l0.031,0.236l0.033,0.237l0.035,0.238l0.038,0.24l0.039,0.242l0.041,0.242l0.044,0.244l0.046,0.246l0.048,0.247l0.05,0.248l0.053,0.25l0.055,0.251l0.057,0.253l0.06,0.254l0.061,0.255l0.065,0.256l0.067,0.258l0.069,0.26l0.071,0.261l0.075,0.262l0.076,0.263l0.08,0.265l0.082,0.267l0.084,0.267l0.088,0.269l0.09,0.272l0.045,0.134l0.047,0.136l0.047,0.136l0.048,0.137l0.049,0.137l0.05,0.137l0.05,0.138l0.051,0.138l0.051,0.139l0.052,0.138l0.053,0.139l0.054,0.14l0.054,0.139l0.055,0.14l0.056,0.141l0.057,0.14l0.057,0.141l0.058,0.142l0.059,0.141l0.059,0.142l0.061,0.143l0.061,0.142l0.062,0.143l0.062,0.144l0.063,0.143l0.064,0.144l0.065,0.144l0.066,0.145l0.066,0.145l0.068,0.145l0.068,0.146l0.068,0.146l0.07,0.146l0.07,0.146l0.071,0.147l0.072,0.148l0.073,0.147l0.074,0.148l0.074,0.148l0.075,0.148l0.076,0.149l0.077,0.149l0.078,0.15l0.078,0.149l0.08,0.151l0.08,0.15l0.081,0.151l0.082,0.151l0.082,0.151l0.084,0.151l0.084,0.152l0.086,0.153l0.086,0.152l0.087,0.153l0.088,0.153l0.088,0.154l0.09,0.154l0.091,0.154l0.091,0.154l0.092,0.155l0.093,0.155l0.094,0.155l0.095,0.156l0.096,0.156l0.097,0.156l0.098,0.157l0.098,0.156l0.1,0.158l0.101,0.157l0.101,0.158l0.102,0.158l0.103,0.158l0.105,0.159l0.105,0.159l0.106,0.159l0.107,0.16l0.108,0.16l0.109,0.16l0.109,0.16l0.111,0.161l0.112,0.161l0.113,0.161l0.113,0.162l0.115,0.162l0.116,0.162l0.117,0.163l0.117,0.162l0.119,0.164l0.119,0.163l0.121,0.163l0.122,0.164l0.122,0.165l0.124,0.164l0.125,0.165l0.125,0.165l0.127,0.166l0.128,0.165l0.128,0.166l0.13,0.166l0.131,0.167l0.132,0.167l0.132,0.167l0.134,0.167l0.135,0.168l0.136,0.168l0.137,0.168l0.138,0.168l0.14,0.169l0.14,0.169l0.143,0.172l0.151,0.181l0.152,0.183l0.15,0.183l0.149,0.183l0.148,0.183l0.146,0.183l0.145,0.182l0.144,0.182l0.142,0.183l0.142,0.182l0.139,0.182l0.139,0.181l0.138,0.182l0.136,0.181l0.135,0.182l0.133,0.181l0.132,0.181l0.131,0.181l0.13,0.18l0.129,0.181l0.127,0.18l0.126,0.18l0.125,0.18l0.124,0.18l0.122,0.18l0.121,0.179l0.12,0.18l0.119,0.179l0.117,0.179l0.117,0.179l0.115,0.178l0.114,0.179l0.112,0.178l0.112,0.178l0.11,0.178l0.11,0.178l0.107,0.177l0.107,0.178l0.106,0.177l0.104,0.177l0.104,0.177l0.102,0.176l0.101,0.177l0.1,0.176l0.098,0.176l0.098,0.176l0.096,0.176l0.096,0.175l0.094,0.176l0.093,0.175l0.092,0.175l0.091,0.174l0.089,0.175l0.089,0.174l0.087,0.174l0.087,0.174l0.085,0.174l0.084,0.173l0.083,0.174l0.082,0.173l0.081,0.173l0.08,0.172l0.079,0.173l0.077,0.172l0.077,0.172l0.075,0.172l0.075,0.172l0.073,0.171l0.073,0.171l0.071,0.171l0.07,0.171l0.07,0.17l0.068,0.171l0.067,0.169l0.066,0.17l0.065,0.17l0.064,0.169l0.063,0.169l0.063,0.169l0.061,0.169l0.06,0.168l0.059,0.168l0.058,0.168l0.057,0.168l0.056,0.167l0.055,0.167l0.054,0.167l0.054,0.167l0.052,0.166l0.051,0.166l0.05,0.166l0.05,0.166l0.048,0.165l0.048,0.165l0.046,0.165l0.046,0.165l0.044,0.164l0.044,0.164l0.043,0.164l0.042,0.163l0.04,0.164l0.041,0.163l0.039,0.163l0.038,0.162l0.037,0.162l0.036,0.162l0.036,0.162l0.035,0.161l0.033,0.161l0.033,0.161l0.032,0.16l0.031,0.161l0.03,0.159l0.03,0.16l0.028,0.159l0.028,0.16l0.027,0.158l0.026,0.158l0.025,0.159l0.024,0.157l0.024,0.158l0.022,0.157l0.022,0.157l0.021,0.157l0.02,0.156l0.02,0.156l0.018,0.156l0.018,0.155l0.017,0.155l0.016,0.155l0.016,0.154l0.014,0.154l0.014,0.154l0.013,0.153l0.012,0.153l0.012,0.153l0.011,0.153l0.01,0.152l0.009,0.151l0.008,0.152l0.008,0.151l0.007,0.151l0.007,0.15l0.005,0.15l0.005,0.15l0.004,0.149l0.004,0.149l0.002,0.149l0.002,0.149l0.002,0.147l0,0.148l0,0.148l-0.001,0.146l-0.001,0.147l-0.002,0.146l-0.003,0.146l-0.003,0.146l-0.004,0.145l-0.005,0.145l-0.006,0.144l-0.006,0.144l-0.006,0.144l-0.008,0.143l-0.008,0.143l-0.008,0.143l-0.009,0.142l-0.01,0.142l-0.011,0.141l-0.011,0.141l-0.011,0.141l-0.013,0.14l-0.012,0.14l-0.014,0.14l-0.014,0.139l-0.014,0.139l-0.016,0.138l-0.015,0.138l-0.017,0.138l-0.017,0.137l-0.017,0.139l-0.036,0.27l-0.039,0.271l-0.041,0.269l-0.043,0.268l-0.045,0.266l-0.047,0.265l-0.048,0.263l-0.051,0.261l-0.053,0.259l-0.055,0.258l-0.056,0.256l-0.058,0.255l-0.06,0.253l-0.062,0.251l-0.063,0.249l-0.065,0.248l-0.066,0.246l-0.068,0.244l-0.07,0.243l-0.071,0.241l-0.072,0.239l-0.074,0.237l-0.075,0.235l-0.076,0.234l-0.078,0.232l-0.079,0.23l-0.08,0.228l-0.081,0.227l-0.083,0.224l-0.083,0.223l-0.085,0.221l-0.086,0.22l-0.086,0.217l-0.088,0.215l-0.088,0.214l-0.089,0.212l-0.09,0.21l-0.091,0.208l-0.099,0.223l-0.1,0.221l-0.101,0.22l-0.103,0.219l-0.103,0.217l-0.104,0.215l-0.105,0.214l-0.106,0.213l-0.107,0.211l-0.107,0.209l-0.109,0.208l-0.109,0.207l-0.11,0.205l-0.111,0.203l-0.111,0.202l-0.112,0.201l-0.113,0.199l-0.113,0.197l-0.114,0.196l-0.114,0.194l-0.115,0.193l-0.115,0.191l-0.116,0.19l-0.117,0.188l-0.116,0.187l-0.118,0.185l-0.117,0.183l-0.118,0.182l-0.118,0.18l-0.118,0.179l-0.119,0.177l-0.119,0.176l-0.119,0.174l-0.119,0.172l-0.119,0.171l-0.119,0.169l-0.12,0.168l-0.119,0.166l-0.12,0.164l-0.119,0.163l-0.12,0.162l-0.119,0.159l-0.119,0.158l-0.119,0.157l-0.119,0.155l-0.119,0.153l-0.119,0.151l-0.118,0.15l-0.118,0.149l-0.118,0.146l-0.118,0.145l-0.117,0.144l-0.117,0.142l-0.116,0.14l-0.116,0.138l-0.115,0.137l-0.115,0.135l-0.115,0.134l-0.114,0.132l-0.113,0.13l-0.113,0.128l-0.112,0.127l-0.112,0.125l-0.111,0.124l-0.11,0.122l-0.111,0.121l-0.215,0.234l-0.214,0.229l-0.21,0.221l-0.206,0.215l-0.202,0.208l-0.199,0.201l-0.193,0.194l-0.19,0.187l-0.184,0.18l-0.18,0.174l-0.175,0.166l-0.169,0.159l-0.163,0.152l-0.158,0.145l-0.151,0.138l-0.145,0.13l-0.139,0.124l-0.132,0.116l-0.125,0.109l-0.118,0.101l-0.111,0.095l-0.103,0.086l-0.097,0.081l-0.164,0.136l-0.132,0.106l-0.097,0.077l-1.169,0.911l-4.247,-2.988l2.087,-1.791l0.218,-0.19l0.216,-0.19l0.214,-0.191l0.212,-0.192l0.211,-0.192l0.208,-0.194l0.207,-0.195l0.206,-0.195l0.203,-0.196l0.202,-0.197l0.199,-0.198l0.199,-0.199l0.196,-0.199l0.194,-0.201l0.193,-0.201l0.191,-0.202l0.189,-0.203l0.187,-0.203l0.185,-0.205l0.184,-0.205l0.181,-0.206l0.18,-0.206l0.178,-0.208l0.176,-0.208l0.175,-0.209l0.172,-0.209l0.171,-0.211l0.168,-0.211l0.167,-0.212l0.165,-0.212l0.163,-0.213l0.162,-0.214l0.159,-0.215l0.157,-0.215l0.156,-0.216l0.154,-0.216l0.151,-0.217l0.15,-0.218l0.148,-0.219l0.146,-0.219l0.144,-0.22l0.142,-0.22l0.141,-0.221l0.138,-0.221l0.137,-0.223l0.134,-0.222l0.133,-0.224l0.13,-0.224l0.129,-0.224l0.127,-0.225l0.124,-0.226l0.123,-0.226l0.121,-0.227l0.119,-0.227l0.117,-0.227l0.115,-0.229l0.113,-0.229l0.111,-0.229l0.109,-0.23l0.107,-0.23l0.105,-0.231l0.103,-0.231l0.104,-0.238l0.08,-0.185l0.078,-0.182l0.076,-0.183l0.077,-0.185l0.075,-0.186l0.074,-0.188l0.074,-0.189l0.072,-0.191l0.072,-0.192l0.071,-0.194l0.07,-0.196l0.069,-0.197l0.067,-0.198l0.067,-0.2l0.065,-0.201l0.065,-0.203l0.063,-0.204l0.062,-0.205l0.06,-0.208l0.059,-0.208l0.058,-0.21l0.057,-0.211l0.055,-0.213l0.054,-0.214l0.053,-0.215l0.051,-0.217l0.049,-0.218l0.048,-0.22l0.046,-0.221l0.045,-0.222l0.043,-0.223l0.041,-0.225l0.04,-0.227l0.038,-0.227l0.036,-0.229l0.035,-0.23l0.032,-0.232l0.031,-0.233l0.029,-0.234l0.027,-0.235l0.025,-0.239l0.011,-0.117l0.012,-0.119l0.01,-0.12l0.011,-0.119l0.009,-0.121l0.009,-0.12l0.009,-0.121l0.008,-0.121l0.008,-0.121l0.007,-0.122l0.006,-0.122l0.007,-0.123l0.005,-0.122l0.005,-0.123l0.004,-0.123l0.004,-0.124l0.003,-0.124l0.003,-0.124l0.002,-0.125l0.002,-0.125l0.001,-0.125l0,-0.125l0,-0.126l-0.001,-0.126l-0.001,-0.127l-0.002,-0.126l-0.003,-0.127l-0.003,-0.127l-0.004,-0.128l-0.004,-0.128l-0.005,-0.128l-0.006,-0.129l-0.006,-0.129l-0.007,-0.129l-0.008,-0.129l-0.008,-0.13l-0.009,-0.13l-0.009,-0.131l-0.01,-0.131l-0.011,-0.13l-0.011,-0.132l-0.012,-0.131l-0.013,-0.132l-0.014,-0.132l-0.014,-0.133l-0.015,-0.133l-0.015,-0.133l-0.016,-0.133l-0.017,-0.134l-0.018,-0.134l-0.018,-0.134l-0.019,-0.135l-0.02,-0.135l-0.02,-0.135l-0.021,-0.136l-0.022,-0.135l-0.022,-0.136l-0.024,-0.137l-0.024,-0.137l-0.025,-0.137l-0.025,-0.137l-0.026,-0.137l-0.027,-0.138l-0.028,-0.139l-0.029,-0.138l-0.029,-0.139l-0.03,-0.139l-0.031,-0.139l-0.032,-0.14l-0.032,-0.14l-0.033,-0.14l-0.034,-0.141l-0.035,-0.14l-0.036,-0.142l-0.036,-0.141l-0.037,-0.142l-0.038,-0.142l-0.039,-0.142l-0.04,-0.143l-0.04,-0.143l-0.042,-0.143l-0.042,-0.143l-0.043,-0.144l-0.044,-0.144l-0.045,-0.144l-0.045,-0.145l-0.047,-0.145l-0.047,-0.145l-0.048,-0.146l-0.049,-0.145l-0.05,-0.146l-0.051,-0.147l-0.052,-0.146l-0.053,-0.147l-0.053,-0.147l-0.055,-0.148l-0.055,-0.148l-0.056,-0.148l-0.058,-0.148l-0.058,-0.149l-0.059,-0.149l-0.06,-0.149l-0.061,-0.149l-0.062,-0.15l-0.062,-0.15l-0.064,-0.15l-0.065,-0.151l-0.066,-0.151l-0.066,-0.151l-0.068,-0.152l-0.069,-0.151l-0.069,-0.152l-0.071,-0.153l-0.071,-0.152l-0.073,-0.153l-0.073,-0.153l-0.075,-0.153l-0.076,-0.154l-0.076,-0.154l-0.078,-0.154l-0.078,-0.154l-0.08,-0.155l-0.081,-0.155l-0.082,-0.156l-0.082,-0.155l-0.084,-0.156l-0.085,-0.156l-0.086,-0.156l-0.087,-0.157l-0.088,-0.157l-0.089,-0.157l-0.091,-0.157l-0.091,-0.158l-0.092,-0.158l-0.094,-0.158l-0.094,-0.158l-0.096,-0.159l-0.097,-0.159l-0.098,-0.159l-0.099,-0.16l-0.1,-0.159l-0.101,-0.16l-0.103,-0.161l-0.103,-0.16l-0.105,-0.161l-0.106,-0.161l-0.107,-0.161l-0.108,-0.162l-0.109,-0.161l-0.111,-0.162l-0.111,-0.163l-0.113,-0.162l-0.114,-0.163l-0.115,-0.163l-0.116,-0.163l-0.118,-0.163l-0.119,-0.164l-0.12,-0.164l-0.121,-0.164l-0.122,-0.165l-0.124,-0.164l-0.124,-0.165l-0.126,-0.165l-0.128,-0.166l-0.128,-0.166l-0.13,-0.165l-0.131,-0.166l-0.132,-0.167l-0.134,-0.166l-0.134,-0.167l-0.136,-0.167l-0.138,-0.167l-0.138,-0.168l-0.142,-0.17l-0.149,-0.179l-0.151,-0.181l-0.149,-0.182l-0.149,-0.18l-0.147,-0.181l-0.146,-0.181l-0.145,-0.18l-0.144,-0.18l-0.143,-0.18l-0.142,-0.179l-0.141,-0.18l-0.139,-0.179l-0.139,-0.178l-0.137,-0.179l-0.137,-0.178l-0.135,-0.179l-0.135,-0.177l-0.133,-0.178l-0.133,-0.178l-0.131,-0.177l-0.13,-0.177l-0.13,-0.176l-0.128,-0.177l-0.127,-0.176l-0.126,-0.176l-0.125,-0.176l-0.125,-0.175l-0.123,-0.176l-0.122,-0.175l-0.121,-0.174l-0.12,-0.175l-0.12,-0.174l-0.118,-0.174l-0.117,-0.174l-0.116,-0.173l-0.115,-0.174l-0.114,-0.173l-0.114,-0.172l-0.112,-0.173l-0.111,-0.172l-0.11,-0.172l-0.11,-0.172l-0.108,-0.171l-0.108,-0.172l-0.106,-0.171l-0.106,-0.17l-0.104,-0.171l-0.104,-0.17l-0.103,-0.17l-0.101,-0.17l-0.101,-0.169l-0.1,-0.169l-0.099,-0.169l-0.098,-0.169l-0.097,-0.168l-0.097,-0.168l-0.095,-0.168l-0.094,-0.168l-0.094,-0.167l-0.092,-0.167l-0.092,-0.167l-0.091,-0.167l-0.09,-0.166l-0.088,-0.166l-0.088,-0.165l-0.088,-0.166l-0.086,-0.165l-0.085,-0.165l-0.085,-0.165l-0.084,-0.164l-0.082,-0.164l-0.082,-0.164l-0.081,-0.163l-0.081,-0.163l-0.079,-0.163l-0.079,-0.163l-0.077,-0.162l-0.077,-0.162l-0.076,-0.162l-0.075,-0.162l-0.074,-0.161l-0.074,-0.161l-0.072,-0.161l-0.072,-0.16l-0.071,-0.16l-0.07,-0.16l-0.069,-0.159l-0.069,-0.16l-0.068,-0.159l-0.066,-0.158l-0.066,-0.159l-0.066,-0.158l-0.064,-0.157l-0.064,-0.158l-0.063,-0.157l-0.062,-0.157l-0.061,-0.157l-0.061,-0.156l-0.059,-0.156l-0.059,-0.156l-0.058,-0.155l-0.058,-0.155l-0.056,-0.155l-0.056,-0.154l-0.055,-0.154l-0.055,-0.154l-0.053,-0.154l-0.053,-0.153l-0.052,-0.153l-0.052,-0.153l-0.05,-0.152l-0.05,-0.152l-0.049,-0.151l-0.049,-0.152l-0.047,-0.151l-0.047,-0.15l-0.047,-0.151l-0.045,-0.15l-0.045,-0.15l-0.044,-0.151l-0.086,-0.296l-0.083,-0.297l-0.081,-0.295l-0.077,-0.294l-0.076,-0.293l-0.072,-0.291l-0.069,-0.29l-0.067,-0.289l-0.065,-0.287l-0.062,-0.286l-0.059,-0.285l-0.056,-0.283l-0.055,-0.282l-0.051,-0.281l-0.049,-0.279l-0.047,-0.278l-0.044,-0.276l-0.042,-0.275l-0.04,-0.273l-0.037,-0.272l-0.035,-0.271l-0.033,-0.269l-0.031,-0.268l-0.028,-0.266l-0.026,-0.264l-0.024,-0.264l-0.022,-0.262l-0.02,-0.26l-0.018,-0.258l-0.015,-0.258l-0.014,-0.255l-0.011,-0.254l-0.01,-0.253l-0.008,-0.251l-0.006,-0.25l-0.004,-0.248l-0.002,-0.246l0,-0.245l0.001,-0.243l0.004,-0.242l0.005,-0.24l0.006,-0.238l0.009,-0.237l0.01,-0.236l0.011,-0.233l0.013,-0.232l0.015,-0.23l0.016,-0.229l0.018,-0.227l0.019,-0.225l0.021,-0.224l0.022,-0.222l0.024,-0.22l0.025,-0.219l0.026,-0.217l0.027,-0.215l0.029,-0.213l0.03,-0.212l0.031,-0.21l0.033,-0.209l0.033,-0.206l0.035,-0.205l0.035,-0.203l0.037,-0.201l0.038,-0.2l0.039,-0.198l0.04,-0.196l0.041,-0.194l0.045,-0.209l0.047,-0.207l0.047,-0.206l0.049,-0.205l0.05,-0.203l0.05,-0.202l0.052,-0.2l0.053,-0.2l0.054,-0.197l0.054,-0.196l0.056,-0.194l0.057,-0.194l0.057,-0.191l0.058,-0.191l0.059,-0.188l0.06,-0.188l0.061,-0.186l0.061,-0.184l0.063,-0.183l0.063,-0.181l0.063,-0.18l0.065,-0.179l0.064,-0.177l0.066,-0.175l0.066,-0.174l0.067,-0.173l0.067,-0.171l0.068,-0.169l0.069,-0.168l0.068,-0.167l0.07,-0.165l0.069,-0.163l0.071,-0.163l0.07,-0.16l0.071,-0.159l0.072,-0.157l0.071,-0.157l0.072,-0.154l0.072,-0.153l0.073,-0.151l0.073,-0.15l0.073,-0.148l0.073,-0.147l0.074,-0.146l0.073,-0.143l0.074,-0.142l0.073,-0.141l0.074,-0.139l0.074,-0.138l0.074,-0.136l0.074,-0.134l0.074,-0.133l0.074,-0.132l0.074,-0.129l0.074,-0.129l0.073,-0.127l0.074,-0.125l0.073,-0.123l0.074,-0.122l0.073,-0.121l0.073,-0.119l0.072,-0.117l0.073,-0.116l0.073,-0.116l0.142,-0.221l0.142,-0.218l0.141,-0.211l0.139,-0.204l0.137,-0.198l0.135,-0.192l0.132,-0.186l0.131,-0.179l0.127,-0.172l0.125,-0.166l0.122,-0.16l0.119,-0.153l0.116,-0.147l0.112,-0.14l0.109,-0.134l0.104,-0.127l0.101,-0.12l0.097,-0.114l0.092,-0.107l0.088,-0.101l0.083,-0.095l0.078,-0.087l0.074,-0.081l0.07,-0.076l0.117,-0.126l0.097,-0.101l0.073,-0.074l1.053,-1.05l4.675,2.568Z" style="fill:#fff;"/><rect x="33.054" y="49.625" width="66" height="1.629" style="fill:#3d4a56;"/><rect x="31.726" y="48.297" width="68.656" height="4.284" style="fill:#3d4a56;"/><rect x="274.672" y="34.047" width="66" height="1.629" style="fill:#3d4a56;"/><rect x="273.344" y="32.719" width="68.656" height="4.284" style="fill:#3d4a56;"/><rect x="401.531" y="126.827" width="66" height="1.629" style="fill:#3d4a56;"/><rect x="400.204" y="125.499" width="68.656" height="4.284" style="fill:#3d4a56;"/><rect x="33.054" y="66.201" width="66" height="1.629" style="fill:#3d4a56;"/><rect x="31.726" y="64.873" width="68.656" height="4.284" style="fill:#3d4a56;"/><rect x="274.672" y="50.622" width="66" height="1.629" style="fill:#3d4a56;"/><rect x="273.344" y="49.294" width="68.656" height="4.284" style="fill:#3d4a56;"/><rect x="401.531" y="143.402" width="66" height="1.629" style="fill:#3d4a56;"/><rect x="400.204" y="142.074" width="68.656" height="4.284" style="fill:#3d4a56;"/><rect x="33.054" y="83.013" width="66" height="1.629" style="fill:#3d4a56;"/><rect x="31.726" y="81.685" width="68.656" height="4.284" style="fill:#3d4a56;"/><rect x="274.672" y="67.434" width="66" height="1.629" style="fill:#3d4a56;"/><rect x="273.344" y="66.106" width="68.656" height="4.284" style="fill:#3d4a56;"/><rect x="401.531" y="160.215" width="66" height="1.629" style="fill:#3d4a56;"/><rect x="400.204" y="158.887" width="68.656" height="4.284" style="fill:#3d4a56;"/><rect x="0" y="256.598" width="489.968" height="311.113" style="fill:#f0f0f0;"/><rect x="0" y="269.206" width="489.968" height="1.968" style="fill:#3d4a56;"/><circle cx="8.832" cy="263.463" r="3.524" style="fill:#3d4a56;"/><circle cx="20.913" cy="263.463" r="3.524" style="fill:#3d4a56;"/><circle cx="32.994" cy="263.463" r="3.524" style="fill:#3d4a56;"/><path d="M43.365,480.097l4.477,9.072l10.011,1.454l-7.244,7.062l1.71,9.971l-8.954,-4.708l-8.955,4.708l1.71,-9.971l-7.244,-7.062l10.012,-1.454l4.477,-9.072Z" style="fill:#7b98a9;fill-rule:nonzero;"/><path d="M83.646,480.097l4.477,9.072l10.012,1.454l-7.245,7.062l1.711,9.971l-8.955,-4.708l-8.954,4.708l1.71,-9.971l-7.244,-7.062l10.011,-1.454l4.477,-9.072Z" style="fill:#7b98a9;fill-rule:nonzero;"/><path d="M123.928,480.097l4.477,9.072l10.011,1.454l-7.244,7.062l1.71,9.971l-8.954,-4.708l-8.954,4.708l1.709,-9.971l-7.244,-7.062l10.012,-1.454l4.477,-9.072Z" style="fill:#7b98a9;fill-rule:nonzero;"/><path d="M164.209,480.097l4.478,9.072l10.011,1.454l-7.245,7.062l1.711,9.971l-8.955,-4.708l-8.954,4.708l1.71,-9.971l-7.244,-7.062l10.011,-1.454l4.477,-9.072Z" style="fill:#7b98a9;fill-rule:nonzero;"/><path d="M204.491,480.097l4.477,9.072l10.011,1.454l-7.244,7.062l1.71,9.971l-8.954,-4.708l-8.955,4.708l1.71,-9.971l-7.244,-7.062l10.012,-1.454l4.477,-9.072Z" style="fill:#7b98a9;fill-rule:nonzero;"/><rect x="28.876" y="329.131" width="190.871" height="121.016" style="fill:#3d4a56;"/><path d="M163.905,256.598l-163.905,112.523l0,-46.429l95.894,-66.074l68.011,-0.02Z" style="fill-opacity:0.1;fill-rule:nonzero;"/><path d="M283.004,256.598l-283.004,194.286l0,-46.576l215.168,-147.71l67.836,0Z" style="fill-opacity:0.1;fill-rule:nonzero;"/><path d="M353.545,358.718l-13.248,-14.203l14.203,-13.248l13.248,14.203l-14.203,13.248Zm-11.137,-14.13l11.21,12.018l12.018,-11.209l-11.209,-12.019l-12.019,11.21Z" style="fill:#3d4a56;fill-rule:nonzero;"/><path d="M416.651,328.586l-19.422,0l0,-19.422l19.422,0l0,19.422Zm-17.928,-1.494l16.434,0l0,-16.434l-16.434,0l0,16.434Z" style="fill:#3d4a56;fill-rule:nonzero;"/><circle cx="321.488" cy="515.46" r="9.916" style="fill:#f0f0f0;"/><path d="M99.715,423.619c4.555,16.837 20.156,27.265 20.156,27.265c0,0 8.217,-16.871 3.662,-33.709c-4.555,-16.837 -20.156,-27.265 -20.156,-27.265c0,0 -8.217,16.871 -3.662,33.709Z" style="fill:#fff;fill-rule:nonzero;"/><path d="M141.152,423.619c-4.555,16.837 -20.157,27.265 -20.157,27.265c0,0 -8.216,-16.871 -3.661,-33.709c4.554,-16.837 20.156,-27.265 20.156,-27.265c0,0 8.216,16.871 3.662,33.709Z" style="fill:#fff;fill-rule:nonzero;"/><path d="M134.459,420c-12.499,12.167 -14.026,30.87 -14.026,30.87c0,0 18.738,-1.023 31.237,-13.19c12.498,-12.167 14.025,-30.87 14.025,-30.87c0,0 -18.738,1.023 -31.236,13.19Z" style="fill:#7b93a9;fill-rule:nonzero;"/><path d="M106.408,420c12.499,12.167 14.025,30.87 14.025,30.87c0,0 -18.737,-1.023 -31.236,-13.19c-12.499,-12.167 -14.025,-30.87 -14.025,-30.87c0,0 18.737,1.023 31.236,13.19Z" style="fill:#7b93a9;fill-rule:nonzero;"/><path d="M168.354,271.963l5.217,10.57l11.664,1.694l-8.441,8.228l1.993,11.617l-10.433,-5.485l-10.433,5.485l1.993,-11.617l-8.44,-8.228l11.664,-1.694l5.216,-10.57Z" style="fill:#7b98a9;fill-rule:nonzero;"/><path d="M187.211,33.652l0,0c18.024,0 32.635,16.216 32.635,36.218l0,25.414l-7.816,0l-4.525,-9.416l1.131,9.416l-50.238,0l-4.114,-8.56l1.028,8.56l-5.656,0l0,-19.954c0,-23.018 16.814,-41.678 37.555,-41.678Z" style="fill:#2f2e41;fill-rule:nonzero;"/><path d="M224.605,199.691l20.038,8.516l69.631,56.607c2.56,3.146 4.13,6.983 4.509,11.021c0.501,6.512 21.54,40.576 14.026,45.085c-7.514,4.508 -34.565,18.034 -36.068,9.017c-1.503,-9.017 -9.518,-47.59 -9.518,-47.59l-67.127,-60.113l4.509,-22.543Z" style="fill:#2f2e41;fill-rule:nonzero;"/><path d="M303.253,322.423l8.516,25.047c0,0 -9.017,9.518 -4.508,17.533l0,27.552l7.013,0l2.004,-14.527c0,0 7.988,14.344 12.023,14.527c8.458,0.385 25.207,3.393 25.708,-1.115c0.5,-4.509 -12.684,-8.904 -12.684,-8.904l-14.026,-38.573l-6.012,-23.544l-18.034,2.004Z" style="fill:#2f2e41;fill-rule:nonzero;"/><path d="M172.507,193.179c0,0 -4.509,44.083 8.516,52.098c13.024,8.015 70.633,33.564 70.633,33.564c0,0 -24.546,23.043 -19.537,28.553c5.01,5.511 27.552,20.539 30.558,17.534c3.005,-3.006 36.569,-39.074 32.561,-50.596c-4.007,-11.522 -59.612,-49.093 -59.612,-49.093l-6.512,-23.544l-2.004,-19.036l-21.04,-13.525l-33.563,24.045Z" style="fill:#2f2e41;fill-rule:nonzero;"/><circle cx="195.457" cy="69.659" r="20.884" style="fill:#ffb9b9;"/><path d="M179.269,78.212c0,0 1.002,19.036 -14.527,25.047c-15.529,6.012 38.573,45.085 38.573,45.085l0,-43.582c0,0 -7.013,-7.514 0,-19.036l-24.046,-7.514Z" style="fill:#ffb9b9;fill-rule:nonzero;"/><path d="M145.957,167.631l4.007,19.537l12.023,67.126c0,0 -10.019,28.554 3.506,28.053c13.526,-0.501 7.014,-31.058 7.014,-31.058l-7.014,-55.605l0,-21.541l-19.536,-6.512Z" style="fill:#ffb9b9;fill-rule:nonzero;"/><path d="M232.119,158.113l4.509,17.533l20.538,49.593c0,0 14.027,23.545 2.505,23.044c-11.522,-0.501 -11.522,-23.044 -11.522,-23.044l-23.544,-40.075l0,-22.543l7.514,-4.508Z" style="fill:#ffb9b9;fill-rule:nonzero;"/><path d="M235.626,304.389l-16.531,15.529c0,0 -11.522,-2.505 -16.031,11.021c-4.508,13.525 -7.514,22.041 -7.514,22.041l6.011,3.507l7.515,-10.52c0,0 4.508,19.036 9.017,20.539c4.508,1.503 27.051,11.522 25.047,0l-11.021,-16.03c0,0 -1.503,-18.034 3.006,-19.537c4.508,-1.503 16.531,-16.531 16.531,-16.531l-16.03,-10.019Z" style="fill:#2f2e41;fill-rule:nonzero;"/><path d="M171.712,208.708c0,0 47.089,-17.032 50.095,-15.529c2.237,0.988 4.62,1.607 7.056,1.831l-0.043,-6.841c0,0 -15.529,-5.51 -24.045,-2.003c-8.516,3.506 -34.565,19.036 -34.565,19.036l1.502,3.506Z" style="fill:#3f3d56;fill-rule:nonzero;"/><path d="M200.309,138.325c0,0 -13.525,-15.529 -17.533,-25.047c-2.535,-5.768 -7.191,-10.347 -13.001,-12.785c-5.81,-2.437 -30.08,6.774 -29.579,18.796c0.501,12.023 19.036,30.558 19.036,30.558c0,0 -2.505,66.626 11.02,65.624c2.918,-3.482 4.977,-7.6 6.012,-12.023c1.503,-7.013 48.09,-14.527 48.09,-14.527c0,0 4.008,7.013 4.509,4.007c0.501,-3.005 -4.008,-76.644 -4.008,-76.644l-23.888,-15.791l-0.658,37.832Z" style="fill:#d0cde1;fill-rule:nonzero;"/><path d="M144.054,114.45l-0.335,0.188c-2.177,1.222 -3.529,3.532 -3.529,6.028l0.005,37.177c-0.007,2.044 -0.914,3.985 -2.478,5.302c-1.929,1.641 -3.719,4.006 -0.026,5.237c6.011,2.004 29.556,12.023 30.057,8.516c0.501,-3.506 1.502,-7.514 0,-7.514c-1.177,0 -8.187,-35.922 -13.82,-51.281c-0.994,-2.718 -3.596,-4.537 -6.491,-4.537c-1.185,0 -2.35,0.304 -3.383,0.884Z" style="fill:#d0cde1;fill-rule:nonzero;"/><path d="M218.093,114.53l7.013,2.004l8.015,34.566c0,0 9.518,2.003 6.512,5.51c-3.005,3.507 -15.529,12.524 -15.529,12.524l-6.011,-54.604Z" style="fill:#d0cde1;fill-rule:nonzero;"/><path d="M177.933,43.629c3.181,-4.271 8.18,-6.822 13.505,-6.891l0.64,0c12.354,0 22.369,11.178 22.369,24.968l0,0l-4.14,0l-0.668,-5.089l-0.98,5.089l-24.551,0l-2.057,-4.305l0.515,4.305l-4.83,0c-2.254,11.193 0.984,22.385 9.715,33.578l-8.228,0l-4.114,-8.61l1.029,8.61l-15.684,0l-3.085,-19.803c0,-14.83 8.617,-27.406 20.564,-31.852Z" style="fill:#2f2e41;fill-rule:nonzero;"/><path d="M441.814,429.241c0,-5.581 -4.531,-10.112 -10.112,-10.112l-155.359,0c-5.581,0 -10.112,4.531 -10.112,10.112c0,5.581 4.531,10.112 10.112,10.112l155.359,0c5.581,0 10.112,-4.531 10.112,-10.112Z" style="fill:#3d4a56;"/><path d="M441.814,469.985c0,-5.581 -4.531,-10.112 -10.112,-10.112l-155.359,0c-5.581,0 -10.112,4.531 -10.112,10.112c0,5.581 4.531,10.112 10.112,10.112l155.359,0c5.581,0 10.112,-4.531 10.112,-10.112Z" style="fill:#3d4a56;"/><path d="M441.814,511.828c0,-5.581 -4.531,-10.112 -10.112,-10.112l-155.359,0c-5.581,0 -10.112,4.531 -10.112,10.112c0,5.581 4.531,10.112 10.112,10.112l155.359,0c5.581,0 10.112,-4.531 10.112,-10.112Z" style="fill:#3d4a56;"/></svg>